<?xml version="1.0" encoding="UTF-8" standalone="no"?>
<!DOCTYPE svg  PUBLIC '-//W3C//DTD SVG 1.1//EN'  'http://www.w3.org/Graphics/SVG/1.1/DTD/svg11.dtd'>
<svg id="flash0.ai" style="enable-background:new 0 0 68.35 49" xmlns="http://www.w3.org/2000/svg" xml:space="preserve" height="49px" viewBox="0 0 68.35 49" width="68.35px" version="1.1" y="0px" x="0px" xmlns:xlink="http://www.w3.org/1999/xlink">
<symbol id="Symbol_1" viewBox="1.372 -28.97 54.878 16.987">
	<g id="Layer_1_2_" clip-rule="evenodd" fill-rule="evenodd">
		<path d="m42.9-15.3c0.333-0.333 0.833-0.767 1.5-1.3 0.156-0.124 0.315-0.249 0.475-0.375l1.45-1.15c0.022-0.027 0.047-0.052 0.075-0.075 0.331-0.262 0.664-0.529 1-0.8l0.9-0.7c0.934-0.667 1.684-1.2 2.25-1.6 0.034 0 0.067-0.034 0.1-0.1l0.4-0.25c0.1-0.067 0.25-0.167 0.45-0.3l2.3-1.5c0.034-0.033 0.083-0.066 0.15-0.1l0.15-0.05 0.05-0.05c0-0.033 0.067-0.1 0.2-0.2l0.05-0.05c-0.096 0.052-0.188 0.102-0.275 0.15-1.367 0.746-2.175 1.212-2.425 1.4-0.2 0.2-0.7 0.517-1.5 0.95-0.8 0.5-1.2 0.767-1.2 0.8-0.8 0.434-1.283 0.7-1.45 0.8-0.167 0.066-0.35 0.2-0.55 0.4l-0.3 0.35c-0.467 0.367-0.784 0.633-0.95 0.8-0.1 0.133-0.433 0.35-1 0.65-0.567 0.367-0.917 0.567-1.05 0.6-0.133 0.067-0.467 0.3-1 0.7-0.534 0.3-0.867 0.517-1 0.65-0.167 0.066-0.35 0.2-0.55 0.4-0.233 0.233-0.35 0.367-0.35 0.4-0.1 0.067-0.1 0.2 0 0.4l0.15 0.3-0.05 0.15 0.15-0.05h0.05c0.033-0.067 0.15-0.15 0.35-0.25h0.05v-0.05c0.367-0.2 0.617-0.367 0.75-0.5 0.033-0.033 0.067-0.066 0.1-0.1h0.1l0.05-0.05c0.067-0.067 0.2-0.167 0.4-0.3zm11.75-8.8c0.033 0 0.067-0.017 0.1-0.05h-0.05l-0.05 0.05-0.05 0.05c-0.045 0.045-0.087 0.078-0.125 0.1-0.028 0.022-0.053 0.039-0.075 0.05h0.05c0.033-0.033 0.066-0.05 0.1-0.05 0.048-0.024 0.082-0.057 0.1-0.1v-0.05z" fill="#FFF6DB"/>
		<path d="m54.7-24.15c0.043-0.043 0.118-0.093 0.225-0.15-0.947 0.477-1.764 0.835-2.45 1.075-0.703 0.239-1.128 0.364-1.275 0.375-0.141 0.017-0.257 0-0.35-0.05-0.09-0.059-0.157-0.076-0.2-0.05-0.148 0.108-0.249 0.174-0.3 0.2-0.4 0.233-0.633 0.417-0.7 0.55 0.233 0 0.417 0.017 0.55 0.05 0.1 0.033 0.167 0.083 0.2 0.15 0.067 0.1 0.033 0.2-0.1 0.3-0.233 0.1-0.4 0.184-0.5 0.25-0.1 0.1-0.25 0.184-0.45 0.25-0.233 0.133-0.4 0.217-0.5 0.25-0.267 0.2-0.5 0.35-0.7 0.45-0.267 0.133-0.517 0.217-0.75 0.25l-0.15 0.05-2.1 1.65c-0.833 0.3-1.633 0.716-2.4 1.25h-0.25c-0.067 0.033-0.217 0.183-0.45 0.45-0.133 0.2-0.283 0.367-0.45 0.5-0.367 0.267-0.9 0.617-1.6 1.05-0.3 0.1-1.033 0.383-2.2 0.85 0.067 0.034 0.133 0.067 0.2 0.1l0.15 0.15c0.167 0.233 0.383 0.5 0.65 0.8-0.066 0.033-0.033 0.167 0.1 0.4l0.3-0.1c0.2-0.066 0.417-0.15 0.65-0.25 0.049-0.016 0.099-0.033 0.15-0.05h0.05l0.05-0.05 0.8-0.5c0.033-0.033 0.083-0.066 0.15-0.1l-0.15 0.05 0.05-0.15-0.15-0.3c-0.1-0.2-0.1-0.333 0-0.4 0-0.033 0.117-0.167 0.35-0.4 0.2-0.2 0.383-0.333 0.55-0.4 0.133-0.133 0.466-0.35 1-0.65 0.533-0.4 0.867-0.633 1-0.7 0.133-0.033 0.483-0.233 1.05-0.6 0.567-0.3 0.9-0.517 1-0.65 0.167-0.167 0.483-0.433 0.95-0.8l0.3-0.35c0.2-0.2 0.383-0.333 0.55-0.4 0.167-0.1 0.65-0.367 1.45-0.8 0-0.033 0.4-0.3 1.2-0.8 0.8-0.434 1.3-0.75 1.5-0.95 0.25-0.188 1.058-0.654 2.425-1.4 0.087-0.048 0.179-0.098 0.275-0.15 0.022-0.011 0.047-0.028 0.075-0.05 0.038-0.021 0.08-0.055 0.125-0.1l0.05-0.05 0.05-0.05zm-11.8 8.85c0.422-0.378 1.081-0.936 1.975-1.675-0.16 0.126-0.319 0.251-0.475 0.375-0.667 0.533-1.167 0.967-1.5 1.3z" fill="#F5ECD3"/>
		<path d="m32.45-23.6c0.167-0.1 0.3-0.2 0.4-0.3 0.333-0.233 0.533-0.383 0.6-0.45 0.1-0.066 0.183-0.117 0.25-0.15 0.2-0.133 0.45-0.283 0.75-0.45 0.633-0.433 1.05-0.65 1.25-0.65l0.85-0.6 0.5-0.45h0.1l-0.5-0.2c-0.033 0.067-0.083 0.1-0.15 0.1l-1.95 0.8-0.15 0.05-0.05 0.05h-0.05v0.05c-0.566 0.167-1.033 0.316-1.4 0.45-0.733 0.267-1.15 0.467-1.25 0.6-0.066 0.033-0.083 0.133-0.05 0.3 0.033 0.2 0.033 0.333 0 0.4-0.067 0.167-0.083 0.316-0.05 0.45 0 0.3 0.034 0.45 0.1 0.45 0.3-0.167 0.567-0.317 0.8-0.45zm4.95 10.05l-1.2 0.65-0.6 0.6c-0.033 0.033 0.033 0.05 0.2 0.05h0.2c0.1-0.133 0.167-0.233 0.2-0.3l1.35-1.1-0.15 0.1zm-3.3 1.55l0.2-0.6-0.35 0.2c-0.1 0.167-0.083 0.283 0.05 0.35l0.1 0.05zm-6.55-0.9c0.067 0.033 0.284 0 0.65-0.1 0.033-0.167 0.1-0.267 0.2-0.3 0.2-0.1 0.317-0.217 0.35-0.35l-1.2 0.75zm-1.35-0.45c0.1 0.067 0.233 0.067 0.4 0l0.05-0.15-0.45 0.15zm-2.25-4.15c0.1 0.033 0.2 0.067 0.3 0.1 0.033 0.033 0 0.066-0.1 0.1-0.1 0.1-0.183 0.15-0.25 0.15-0.333 0.1-0.783 0.2-1.35 0.3 0.467 0.033 0.8 0.05 1 0.05 0.367 0.033 0.65 0.1 0.85 0.2l-0.3 0.2c-0.333 0.133-0.684 0.233-1.05 0.3 0.133 0.033 0.25 0.067 0.35 0.1 0.1-0.033 0.267-0.1 0.5-0.2 0.233-0.066 0.4-0.117 0.5-0.15 1-0.367 1.684-0.65 2.05-0.85l1.35-1.1c-0.367 0.066-0.816 0.15-1.35 0.25-0.267 0.066-0.667 0.183-1.2 0.35-0.433 0.067-0.867 0.133-1.3 0.2zm-1.05 1.4c0-0.033 0.067-0.066 0.2-0.1 0.133-0.1 0.25-0.167 0.35-0.2-0.233-0.067-0.633-0.1-1.2-0.1v0.05l0.35 0.15c0.133 0.1 0.233 0.167 0.3 0.2zm-0.2-0.95c0.333-0.034 0.55-0.05 0.65-0.05-0.133-0.033-0.217-0.083-0.25-0.15-0.167 0.067-0.3 0.133-0.4 0.2zm-8.75-0.85c0.267-0.033 0.466-0.117 0.6-0.25 0 0.033 0.034 0.033 0.1 0l-0.1-0.15c-0.2-0.2-0.333-0.434-0.4-0.7-0.033-0.3 0.033-0.667 0.2-1.1 0.033-0.033 0.1-0.133 0.2-0.3 0-0.033-0.017-0.15-0.05-0.35l-0.1-0.15c0-0.1 0.067-0.184 0.2-0.25-0.333-0.033-0.684-0.083-1.05-0.15-1.5 1.367-2.816 2.617-3.95 3.75 0.1 0 0.2-0.017 0.3-0.05 0.934-0.066 1.45-0.117 1.55-0.15 0.267-0.033 0.617-0.067 1.05-0.1 0.467 0.033 0.8 0.033 1 0 0.133 0 0.283-0.017 0.45-0.05zm-4.65 2.3l-0.2 0.1c-0.533 0.233-0.9 0.467-1.1 0.7l-0.3 0.2 0.6-0.1 0.3-0.3c0.133-0.033 0.3-0.1 0.5-0.2 0.133-0.167 0.316-0.383 0.55-0.65-0.167 0.1-0.283 0.183-0.35 0.25zm6.6 0.6l0.05-0.1v-0.1c-0.253 0.222-0.495 0.396-0.725 0.525 0.028-0.006 0.053-0.014 0.075-0.025l0.6-0.3zm0.15 0.35l0.7-0.2 0.65-0.4c0.033-0.067 0.15-0.15 0.35-0.25 0.133-0.167 0.233-0.333 0.3-0.5-0.967 0.667-1.633 1.117-2 1.35z" fill="#C9BE9B"/>
		<path d="m42.5-17.3h0.25c0.767-0.534 1.567-0.95 2.4-1.25l2.1-1.65 0.85-0.65c-0.267-0.033-0.45-0.066-0.55-0.1-0.8-0.066-1.316-0.1-1.55-0.1l-0.25 0.05c-0.133 0.067-0.25 0.1-0.35 0.1-0.6 0.267-1.383 0.6-2.35 1-1.367 0.5-2.183 0.783-2.45 0.85-0.2 0.1-0.35 0.15-0.45 0.15-0.133 0.1-0.217 0.15-0.25 0.15-0.1 0.167-0.1 0.317 0 0.45 0.1 0.2 0.167 0.433 0.2 0.7-0.033 0.067-0.05 0.15-0.05 0.25-0.1 0.133-0.117 0.217-0.05 0.25 0.1-0.033 0.317-0.083 0.65-0.15 0.333-0.033 0.55-0.05 0.65-0.05 0.2-0.034 0.4-0.034 0.6 0h0.6z" fill="#EDE7CE"/>
		<path d="m40.45-25.45l-0.15 0.15c-0.5 0.333-1.316 0.65-2.45 0.95-0.233 0.1-0.434 0.184-0.6 0.25-0.3 0.1-0.45 0.167-0.45 0.2-0.2 0.133-0.517 0.367-0.95 0.7-0.133 0.067-0.233 0.133-0.3 0.2-0.2 0.133-0.3 0.217-0.3 0.25 0.067 0.033 0.133 0.067 0.2 0.1 0.133 0.167 0.3 0.35 0.5 0.55 0.1 0.267 0.216 0.45 0.35 0.55 0.2 0.233 0.467 0.383 0.8 0.45l0.3-0.1c0.367-0.133 0.783-0.233 1.25-0.3 0.434-0.067 1.317-0.2 2.65-0.4-0.033 0 0.15-0.15 0.55-0.45 0.1-0.167 0.267-0.316 0.5-0.45 0.566-0.567 1.017-0.983 1.35-1.25l-0.1-0.05c-0.1 0-0.2-0.033-0.3-0.1l-1-0.35c-0.133-0.034-0.233-0.1-0.3-0.2-0.1 0-0.167-0.017-0.2-0.05l-0.4-0.15c-0.066-0.033-0.133-0.083-0.2-0.15h-0.05l-0.3-0.15c-0.1-0.067-0.233-0.133-0.4-0.2zm-9.85 6.15c-0.1 0.066-0.233 0.133-0.4 0.2h0.1c0.233-0.066 0.317-0.05 0.25 0.05 0 0.033-0.183 0.183-0.55 0.45-0.2 0.2-0.267 0.35-0.2 0.45-0.033 0.033-0.1 0.066-0.2 0.1-0.067 0.033-0.117 0.066-0.15 0.1-0.167 0.067-0.333 0.15-0.5 0.25-0.267 0.133-0.434 0.217-0.5 0.25 0.233 0.067 0.483 0.133 0.75 0.2 0.066 0 0.033 0.05-0.1 0.15-0.058 0.058-0.158 0.1-0.3 0.125 0.307-0.017 0.574-0.025 0.8-0.025 0.167 0 0.167 0.05 0 0.15-0.1 0.067-0.2 0.117-0.3 0.15-0.533 0.133-0.9 0.15-1.1 0.05-0.567 0.033-1.05 0.1-1.45 0.2-1.133 0.267-0.867 0.417 0.8 0.45 0.467 0 0.883-0.067 1.25-0.2 0.534-0.133 0.867-0.283 1-0.45 0-0.067 0.1-0.117 0.3-0.15 0.233-0.067 0.333-0.067 0.3 0-0.2 0.3-0.867 0.617-2 0.95-1.233 0.267-2.1 0.3-2.6 0.1-0.267-0.1-0.383-0.2-0.35-0.3-0.067 0.033-0.1 0.083-0.1 0.15-0.1 0.033-0.15 0.083-0.15 0.15-0.034 0.033-0.034 0.05 0 0.05l0.1 0.05v0.25c-0.033 0.133-0.066 0.233-0.1 0.3 0 0.1-0.017 0.184-0.05 0.25 0 0.133 0.017 0.217 0.05 0.25l0.45-0.1c0.3-0.066 0.733-0.183 1.3-0.35l1.3-0.25c0.233-0.034 0.383-0.083 0.45-0.15 0.733-0.4 1.316-0.716 1.75-0.95 0.267-0.133 0.633-0.35 1.1-0.65l-0.7-2.25h-0.25zm-3.85 2.05c-0.466 0.433-0.815 0.766-1.05 1 0.035-0.034 0.119-0.067 0.25-0.1 0.433-0.233 1.083-0.4 1.95-0.5 0.033-0.066 0.15-0.133 0.35-0.2l-0.55-0.1c-0.067 0-0.083-0.033-0.05-0.1l0.1-0.1c0.233-0.1 0.467-0.233 0.7-0.4 0.2-0.133 0.417-0.233 0.65-0.3 0-0.1 0.083-0.25 0.25-0.45 0.233-0.2 0.383-0.333 0.45-0.4-0.367 0.167-0.833 0.383-1.4 0.65-0.3 0.133-0.517 0.25-0.65 0.35-0.133 0.033-0.217 0.066-0.25 0.1l-0.75 0.55z" fill="#F0E7CC"/>
		<path d="m51.2-23.8l-0.6 0.05 0.4-0.025c-0.417 0.04-0.834 0.065-1.25 0.075-0.283 0.007-0.567 0.007-0.85 0-1.133 0-2.267-0.117-3.4-0.35-0.2 0.1-0.383 0.216-0.55 0.35 2.115 0.571 4.015 0.821 5.7 0.75 0.043-0.025 0.11-0.009 0.2 0.05 0.093 0.05 0.209 0.067 0.35 0.05 0.147-0.011 0.572-0.136 1.275-0.375 0.686-0.239 1.502-0.598 2.45-1.075l0.05-0.025c0.023-0.005 0.049-0.014 0.075-0.025 0.102-0.076 0.202-0.159 0.3-0.25 0.033 0.033 0.066 0.033 0.1 0 0.3-0.2 0.466-0.333 0.5-0.4 0.133-0.2 0.233-0.383 0.3-0.55-0.033-0.1-0.05-0.184-0.05-0.25-0.034-0.1-0.117-0.2-0.25-0.3-0.219-0.164-0.627-0.313-1.225-0.45h-0.025c-0.065-0.021-0.382-0.188-0.95-0.5v0.45c0.428 0.173 0.687 0.273 0.775 0.3 0.061 0.019 0.119 0.035 0.175 0.05 0.547 0.194 0.864 0.41 0.95 0.65 0 0.133-0.033 0.267-0.1 0.4-0.167 0.233-0.466 0.434-0.9 0.6l-0.45 0.2c-0.479 0.158-0.988 0.358-1.525 0.6-0.538 0.237-1.03 0.237-1.475 0zm-14.05-2.85c0.733 0.233 1.467 0.5 2.2 0.8 0.4 0.2 0.767 0.333 1.1 0.4 0.167 0.067 0.3 0.133 0.4 0.2l0.3 0.15h0.05c0.066 0.067 0.133 0.117 0.2 0.15l0.4 0.15c0.034 0.033 0.1 0.05 0.2 0.05 0.067 0.1 0.167 0.167 0.3 0.2l1 0.35c0.1 0.067 0.2 0.1 0.3 0.1l0.1 0.05 0.15 0.05c-0.4 0.433-0.767 0.867-1.1 1.3-0.067 0.067-0.1 0.15-0.1 0.25 0.133-0.033 0.434-0.216 0.9-0.55 0.233-0.333 0.667-0.733 1.3-1.2l0.05-0.05-0.8-0.2c-0.667-0.233-1.367-0.533-2.1-0.9-0.5-0.2-1.167-0.5-2-0.9-1.7-0.733-3.683-1.283-5.95-1.65-0.233 0.133-0.466 0.25-0.7 0.35 0.5 0.133 1.033 0.216 1.6 0.25 0.033 0.033 0.083 0.05 0.15 0.05l0.95 0.25c0.233 0.067 0.434 0.117 0.6 0.15l0.5 0.2zm-9.5-1.55c0.2 0.034 0.4 0.05 0.6 0.05-0.067 0.433-0.167 0.783-0.3 1.05-0.1 0.033-0.1 0.067 0 0.1 0.066-0.033 0.183-0.1 0.35-0.2 0.067-0.033 0.133-0.083 0.2-0.15-0.033-0.066-0.033-0.15 0-0.25l-0.05-0.6c0.033 0 0-0.066-0.1-0.2-0.033-0.1-0.067-0.184-0.1-0.25-3.067-0.267-5.667-0.367-7.8-0.3-1.467 0-2.633 0.083-3.5 0.25h-0.25l-1.1 0.25c-0.533 0.233-0.967 0.517-1.3 0.85l-0.05 0.05c-0.067 0.133-0.15 0.3-0.25 0.5 0 0.066-0.033 0.216-0.1 0.45-0.066 0.233-0.025 0.492 0.125 0.775 0.15 0.284 0.358 0.475 0.625 0.575 0.167 0.1 0.383 0.167 0.65 0.2 0.333 0.133 0.8 0.233 1.4 0.3l0.6 0.05 0.55-0.2-1.1-0.15c-0.768-0.169-1.201-0.478-1.3-0.925-0.096-0.442-0.146-0.833-0.15-1.175s0.104-0.558 0.325-0.65c0.218-0.098 0.41-0.197 0.575-0.3 0.066-0.033 0.15-0.066 0.25-0.1 0.133-0.033 0.25-0.05 0.35-0.05l2.85-0.2h0.1 0.1c0.112-0.003 0.229-0.02 0.35-0.05l0.1 0.05c0.034 0 0.067-0.017 0.1-0.05h0.2l7.05 0.3zm2.65 2c0.633-0.667 1.133-1.267 1.5-1.8v-0.1c-0.033 0-0.05-0.033-0.05-0.1-0.133 0-0.45-0.066-0.95-0.2-0.466-0.033-0.833-0.083-1.1-0.15l-0.15 0.2c-0.066 0.067-0.15 0.15-0.25 0.25 0.767 0.067 1.467 0.15 2.1 0.25-0.4 0.5-0.883 1.1-1.45 1.8 0.1 0 0.217-0.05 0.35-0.15z" fill="#B3A383"/>
		<path d="m32-14.95c-0.867 0.367-1.7 0.733-2.5 1.1l-1.3 0.85c-0.034 0.067-0.1 0.15-0.2 0.25l1.35 0.35c0.033 0.033 0.066 0.05 0.1 0.05l0.4 0.1c0.1 0 0.2 0.017 0.3 0.05 0.2 0.067 0.483 0.117 0.85 0.15 0.033-0.5 0.3-1.133 0.8-1.9 0.2-0.333 0.45-0.667 0.75-1 0.034-0.033 0.034-0.05 0-0.05-0.133-0.033-0.317-0.017-0.55 0.05zm0.9-0.35c0.033-0.067 0.083-0.117 0.15-0.15-0.2 0.034-0.367 0.067-0.5 0.1 0.033 0.033 0.15 0.05 0.35 0.05z" fill="#DBD5B8"/>
		<path d="m36.6-18.25c0.3-0.067 0.633-0.15 1-0.25 0.133 0 0.267-0.033 0.4-0.1 0.133-0.066 0.1-0.117-0.1-0.15-0.033 0.033-0.3 0.083-0.8 0.15h-0.8c-0.367-0.033-0.417-0.15-0.15-0.35 0.1-0.033 0.333-0.167 0.7-0.4 0.533-0.267 1.05-0.6 1.55-1 0.133-0.1 0.1-0.133-0.1-0.1-0.2 0.034-0.333 0.083-0.4 0.15-0.133 0.066-0.667 0.383-1.6 0.95-0.7 0.367-1.066 0.667-1.1 0.9-0.034 0.1 0.267 0.15 0.9 0.15-0.233 0.066-0.45 0.2-0.65 0.4l-0.05 0.05c-0.5 0.1-0.967 0.15-1.4 0.15l-0.45-0.05c-0.2 0-0.367 0.05-0.5 0.15-0.133 0.133-0.15 0.184-0.05 0.15 0.867 0.034 1.283 0.1 1.25 0.2-0.033 0.067-0.333 0.233-0.9 0.5l-0.1 0.1c-0.067 0.066-0.033 0.083 0.1 0.05l0.3 0.1c-0.333 0.067-0.566 0.15-0.7 0.25 0.167-0.033 0.617-0.117 1.35-0.25l0.35-0.05c0.567-0.034 1.217-0.1 1.95-0.2 0.1-0.033 0.217-0.083 0.35-0.15s0.15-0.117 0.05-0.15c-0.833 0.033-1.65 0.117-2.45 0.25-0.233 0-0.167-0.117 0.2-0.35 0.067 0 0.15-0.067 0.25-0.2 0.067-0.1 0.1-0.167 0.1-0.2v-0.05c0.433-0.033 0.783-0.083 1.05-0.15 0.067 0 0.15-0.05 0.25-0.15 0.167-0.067 0.167-0.1 0-0.1-0.333-0.033-0.267-0.117 0.2-0.25zm-4.05 3.25c0.2-0.033 0.383-0.05 0.55-0.05 0.467-0.034 1.217-0.117 2.25-0.25-0.633 0.267-1.1 0.466-1.4 0.6-0.5 0.267-0.717 0.483-0.65 0.65-0.033 0.066 0.067 0.05 0.3-0.05 0.167-0.066 0.233-0.133 0.2-0.2 0-0.1 0.3-0.284 0.9-0.55 0.7-0.3 1.15-0.483 1.35-0.55 0.067-0.033 0.15-0.083 0.25-0.15 0.067-0.034 0.05-0.05-0.05-0.05-1.233 0.133-2.067 0.217-2.5 0.25-0.267 0-0.55 0.017-0.85 0.05-0.2 0-0.316-0.017-0.35-0.05-0.466 0.067-0.883 0.083-1.25 0.05-0.133 0.033-0.267 0.083-0.4 0.15-0.133 0.1-0.167 0.15-0.1 0.15 0.367 0 0.767 0.017 1.2 0.05 0.233-0.067 0.417-0.083 0.55-0.05zm-2.35-4.1c-0.2 0.033-0.317 0.083-0.35 0.15 0 0.034-0.017 0.05-0.05 0.05-0.066 0.066-0.216 0.2-0.45 0.4-0.167 0.2-0.25 0.35-0.25 0.45-0.233 0.066-0.45 0.167-0.65 0.3-0.233 0.167-0.467 0.3-0.7 0.4l-0.1 0.1c-0.033 0.067-0.017 0.1 0.05 0.1l0.55 0.1c-0.2 0.066-0.317 0.133-0.35 0.2-0.867 0.1-1.517 0.267-1.95 0.5-0.131 0.033-0.215 0.066-0.25 0.1-0.167 0.067-0.25 0.133-0.25 0.2-0.034 0.1 0.083 0.2 0.35 0.3 0.5 0.2 1.367 0.167 2.6-0.1 1.133-0.333 1.8-0.65 2-0.95 0.033-0.067-0.066-0.067-0.3 0-0.2 0.033-0.3 0.083-0.3 0.15-0.133 0.167-0.466 0.316-1 0.45-0.367 0.133-0.783 0.2-1.25 0.2-1.667-0.033-1.933-0.183-0.8-0.45 0.4-0.1 0.883-0.167 1.45-0.2 0.2 0.1 0.566 0.083 1.1-0.05 0.1-0.033 0.2-0.083 0.3-0.15 0.167-0.1 0.167-0.15 0-0.15-0.227 0-0.493 0.008-0.8 0.025 0.142-0.025 0.242-0.067 0.3-0.125 0.133-0.1 0.167-0.15 0.1-0.15-0.267-0.067-0.517-0.133-0.75-0.2 0.066-0.033 0.233-0.117 0.5-0.25 0.167-0.1 0.333-0.183 0.5-0.25 0.033-0.033 0.083-0.066 0.15-0.1 0.1-0.034 0.167-0.067 0.2-0.1-0.066-0.1 0-0.25 0.2-0.45 0.367-0.267 0.55-0.417 0.55-0.45 0.067-0.1-0.017-0.117-0.25-0.05h-0.1zm-3.125-1.35c0.086-0.002 0.145-0.02 0.175-0.05 0.1-0.067 0.017-0.067-0.25 0-0.133 0.067-0.233 0.1-0.3 0.1h-0.05v0.05c-0.066 0.067-0.3 0.184-0.7 0.35-0.434 0.167-0.7 0.267-0.8 0.3-0.167 0.1-0.2 0.167-0.1 0.2 0.367 0.067 0.65 0.1 0.85 0.1 0.333 0 0.6 0.017 0.8 0.05-0.367 0.167-0.85 0.317-1.45 0.45-0.4 0.033-0.95 0.133-1.65 0.3-0.5 0.233-0.633 0.333-0.4 0.3 0.4 0 0.783 0.017 1.15 0.05h-0.7c-0.1 0.067-0.217 0.133-0.35 0.2-0.074 0.019-0.125 0.027-0.15 0.025l-0.05 0.025c-0.167 0.067-0.167 0.1 0 0.1l0.45-0.05c-0.1 0.067-0.183 0.117-0.25 0.15-0.233 0.167-0.35 0.3-0.35 0.4-0.034 0.066 0.017 0.117 0.15 0.15 0.033 0.067 0.117 0.117 0.25 0.15-0.1 0-0.317 0.017-0.65 0.05-0.133 0.033-0.233 0.066-0.3 0.1-0.433 0.034-0.733 0.067-0.9 0.1-0.167 0.067-0.317 0.117-0.45 0.15l-0.15 0.15c0.6 0 1.05 0.017 1.35 0.05 0.567 0 0.967 0.033 1.2 0.1-0.1 0.033-0.217 0.1-0.35 0.2-0.133 0.034-0.2 0.067-0.2 0.1h0.15c0.367-0.066 0.717-0.167 1.05-0.3l0.3-0.2c-0.2-0.1-0.483-0.167-0.85-0.2-0.2 0-0.533-0.017-1-0.05 0.567-0.1 1.017-0.2 1.35-0.3 0.067 0 0.15-0.05 0.25-0.15 0.1-0.034 0.133-0.067 0.1-0.1-0.1-0.033-0.2-0.067-0.3-0.1-0.167-0.033-0.267-0.067-0.3-0.1-0.167 0-0.15-0.083 0.05-0.25l0.15-0.15c0.4 0 0.85-0.067 1.35-0.2 0.066 0 0.233-0.033 0.5-0.1l0.05-0.05 0.05-0.05c-0.333-0.1-0.716-0.167-1.15-0.2 1.167-0.267 2.067-0.517 2.7-0.75 0-0.033 0.05-0.083 0.15-0.15 0.1-0.033 0.117-0.05 0.05-0.05-0.2-0.067-0.483-0.133-0.85-0.2-0.167 0-0.483-0.033-0.95-0.1 0.333-0.1 0.617-0.2 0.85-0.3s0.383-0.2 0.45-0.3h0.025zm-9.675 0.45h0.05c0.667 0.167 1.633 0.1 2.9-0.2 0.9-0.267 1.767-0.566 2.6-0.9 0.133-0.033 0.233-0.1 0.3-0.2-0.033-0.034-0.183-0.017-0.45 0.05-0.6 0.233-1.216 0.433-1.85 0.6-0.9 0.3-1.617 0.417-2.15 0.35-0.933-0.034-1-0.217-0.2-0.55 0.3-0.133 0.983-0.367 2.05-0.7 0.067 0 0.133-0.034 0.2-0.1h0.05c0.034-0.001 0.067-0.035 0.1-0.1 0.1-0.067 0.117-0.1 0.05-0.1-0.933 0.067-0.833-0.183 0.3-0.75 0.1 0 0.2-0.033 0.3-0.1 0.1-0.066 0.117-0.117 0.05-0.15-0.367-0.033-0.1-0.417 0.8-1.15l0.05-0.05c0-0.034-0.033-0.067-0.1-0.1 0.667-0.267 1.267-0.467 1.8-0.6 0.133-0.033 0.3-0.1 0.5-0.2 0.133-0.1 0.1-0.133-0.1-0.1-0.433 0.066-0.85 0.216-1.25 0.45-0.267 0.133-0.683 0.283-1.25 0.45-1.9 0.267-3.417 0.75-4.55 1.45-0.033 0.067-0.067 0.117-0.1 0.15-0.1 0.066-0.05 0.1 0.15 0.1 0.7-0.1 1.367-0.25 2-0.45 0.434-0.133 0.95-0.35 1.55-0.65v0.05c-0.2 0.167-0.284 0.267-0.25 0.3-0.1 0.133-0.15 0.217-0.15 0.25 0 0.067-0.05 0.184-0.15 0.35l-0.05 0.05 0.05 0.05 0.15-0.05c-0.4 0.2-0.667 0.367-0.8 0.5-0.2 0.167-0.317 0.333-0.35 0.5-0.033 0.033-0.017 0.066 0.05 0.1h0.1c-2.467 0.7-3.267 1.183-2.4 1.45zm12.4-3.65c-0.1 0.066-0.216 0.117-0.35 0.15-0.233 0.167-0.35 0.283-0.35 0.35-0.267 0.233-0.033 0.333 0.7 0.3 0.133 0.033 0.3-0.017 0.5-0.15 0.167-0.1 0.184-0.133 0.05-0.1-0.7-0.033-0.9-0.117-0.6-0.25 0.1-0.033 0.2-0.117 0.3-0.25h0.05c0.167-0.1 0.333-0.183 0.5-0.25-0.033 0-0.033-0.017 0-0.05 0-0.033-0.033-0.05-0.1-0.05-0.2 0.034-0.367 0.1-0.5 0.2-0.033 0.033-0.1 0.067-0.2 0.1zm1.05 1c-0.633-0.133-1.417-0.083-2.35 0.15-1.3 0.2-2.133 0.583-2.5 1.15-0.1 0.1 0 0.133 0.3 0.1 0.567-0.133 1.1-0.217 1.6-0.25 0.7-0.067 1.25-0.067 1.65 0l-0.15 0.1c-0.233 0.1-0.3 0.167-0.2 0.2 0.066 0 0.216-0.033 0.45-0.1 0.267-0.133 0.467-0.233 0.6-0.3 0.033-0.066 0.067-0.117 0.1-0.15h-0.05c-0.8-0.167-1.966-0.133-3.5 0.1 0.4-0.4 1.05-0.633 1.95-0.7 0.9-0.1 1.617 0 2.15 0.3 0.033 0.033 0.15 0 0.35-0.1 0.233-0.033 0.317-0.083 0.25-0.15-0.233-0.133-0.45-0.25-0.65-0.35zm-0.25 3.35h0.25c0.167-0.034 0.367-0.05 0.6-0.05 0.433-0.1 0.917-0.2 1.45-0.3 0.067 0 0.167-0.033 0.3-0.1 0.167-0.067 0.2-0.117 0.1-0.15s-0.333-0.067-0.7-0.1c-0.333-0.033-0.533-0.083-0.6-0.15-0.1 0-0.1-0.067 0-0.2 0.233-0.1 0.333-0.167 0.3-0.2 0.034-0.067-0.017-0.083-0.15-0.05h-0.15c-0.167 0.1-0.283 0.184-0.35 0.25 0 0.033-0.083 0.117-0.25 0.25-0.2 0.133-0.233 0.233-0.1 0.3 0.133 0.066 0.383 0.083 0.75 0.05-0.6 0.133-1.133 0.167-1.6 0.1-0.067-0.033-0.167 0-0.3 0.1-0.233 0.133-0.283 0.2-0.15 0.2 0.2 0 0.4 0.017 0.6 0.05zm-6.95-4.05c0.1 0.033 0.217 0.033 0.35 0h0.2c0.133-0.033 0.283-0.1 0.45-0.2 0.033 0 0.083-0.034 0.15-0.1 0.034-0.033 0.034-0.05 0-0.05h-0.1c0.133-0.066 0.133-0.1 0-0.1-0.633 0.1-0.983 0.233-1.05 0.4v0.05zm-0.65 0.95c0.133 0 0.283-0.033 0.45-0.1l0.4-0.2c0.133-0.033 0.183-0.083 0.15-0.15-0.033-0.033-0.1-0.05-0.2-0.05 0.067-0.1 0-0.133-0.2-0.1-0.2 0-0.367 0.05-0.5 0.15-0.167 0.1-0.267 0.167-0.3 0.2-0.1 0.1-0.1 0.167 0 0.2 0.033 0.033 0.1 0.05 0.2 0.05zm4.8 1.35c0-0.1-0.133-0.133-0.4-0.1-0.267 0.1-0.417 0.183-0.45 0.25-0.034 0.066-0.067 0.083-0.1 0.05-0.233 0.067-0.333 0.15-0.3 0.25-0.033 0.1 0.067 0.133 0.3 0.1 0.3-0.067 0.533-0.15 0.7-0.25 0.133-0.1 0.217-0.2 0.25-0.3zm5.4-0.1c0.2 0 0.4-0.033 0.6-0.1 0.167-0.067 0.317-0.15 0.45-0.25s0.217-0.183 0.25-0.25c-0.059-0.118-0.326-0.168-0.8-0.15 0.154-0.014 0.32-0.03 0.5-0.05 0.1-0.033 0.216-0.083 0.35-0.15 0.133-0.066 0.2-0.133 0.2-0.2-0.067-0.067-0.017-0.184 0.15-0.35 0.033-0.033 0.2-0.15 0.5-0.35 0.133-0.1 0.1-0.133-0.1-0.1s-0.333 0.083-0.4 0.15l-0.5 0.4c-0.133 0.1-0.217 0.216-0.25 0.35-0.533 0.067-0.95 0.15-1.25 0.25-0.333 0.1-0.617 0.233-0.85 0.4-0.033 0.033-0.033 0.066 0 0.1 0 0.034 0.067 0.034 0.2 0 0.3-0.033 0.5-0.066 0.6-0.1 0.233-0.034 0.433-0.05 0.6-0.05l0.25 0.05c0 0.066-0.1 0.117-0.3 0.15l-0.5 0.05c-0.4 0.067-0.633 0.184-0.7 0.35-0.133 0.033-0.267 0.1-0.4 0.2s-0.167 0.15-0.1 0.15c0.233 0 0.466-0.017 0.7-0.05 0.1-0.033 0.217-0.083 0.35-0.15 0.133-0.033 0.183-0.083 0.15-0.15-0.066-0.033-0.117-0.067-0.15-0.1l0.45-0.05zm-0.35 5.15c-0.333 0.067-0.65 0.167-0.95 0.3-0.133 0.133-0.133 0.217 0 0.25 0.067-0.033 0.2-0.083 0.4-0.15l1-0.35c0.133-0.033 0.217-0.1 0.25-0.2 0.1-0.067 0.067-0.1-0.1-0.1-0.067 0.067-0.15 0.083-0.25 0.05-0.167 0.034-0.267 0.034-0.3 0-0.067 0.067-0.083 0.133-0.05 0.2zm-14.25-6.9c-0.667 0.066-0.417-0.067 0.75-0.4 1.133-0.367 1.8-0.517 2-0.45-1.033 0.533-1.95 0.817-2.75 0.85z" fill="#9D957E"/>
		<path d="m23.05-16.1h-0.15c-0.066-0.033-0.167-0.1-0.3-0.2l-0.35-0.15v-0.05c-0.3-0.033-0.75-0.05-1.35-0.05l0.15-0.15c0.133-0.033 0.284-0.083 0.45-0.15 0.167-0.033 0.467-0.066 0.9-0.1 0.067-0.033 0.167-0.066 0.3-0.1 0.1-0.067 0.233-0.133 0.4-0.2-0.133-0.033-0.184-0.083-0.15-0.15 0-0.1 0.117-0.233 0.35-0.4 0.067-0.034 0.15-0.083 0.25-0.15l-0.45 0.05c-0.167 0-0.167-0.033 0-0.1l0.05-0.025-0.05-0.025c-0.133 0.033-0.267 0.05-0.4 0.05s-0.25 0.017-0.35 0.05c-0.133 0.034-0.267 0.1-0.4 0.2-0.1 0.067-0.284 0.233-0.55 0.5-0.233 0.2-0.433 0.367-0.6 0.5-0.133 0.1-0.283 0.267-0.45 0.5-0.133 0.133-0.283 0.333-0.45 0.6-0.233 0.233-0.4 0.417-0.5 0.55l-0.05 0.2-0.25 0.3c-0.033 0.033-0.017 0.067 0.05 0.1l0.1 0.05h0.05l0.1 0.1c0.7 0.067 1.367 0.117 2 0.15 0.067-0.167 0.15-0.267 0.25-0.3 0.033-0.033 0.117-0.083 0.25-0.15 0.667-0.434 1.633-0.983 2.9-1.65 0.167-0.067 0.483-0.2 0.95-0.4 0.5-0.267 0.833-0.45 1-0.55l0.75-0.55c0.033-0.034 0.117-0.067 0.25-0.1 0.133-0.1 0.35-0.217 0.65-0.35l0.65-0.45c-0.167 0-0.367 0.017-0.6 0.05h-0.7l-1 0.1c-0.433 0.1-0.767 0.167-1 0.2l-0.05 0.05c-0.267 0.066-0.434 0.1-0.5 0.1-0.5 0.133-0.95 0.2-1.35 0.2l-0.15 0.15c-0.2 0.167-0.217 0.25-0.05 0.25 0.033 0.033 0.133 0.067 0.3 0.1 0.433-0.067 0.867-0.133 1.3-0.2 0.533-0.167 0.933-0.283 1.2-0.35 0.533-0.1 0.983-0.184 1.35-0.25l-1.35 1.1c-0.367 0.2-1.05 0.483-2.05 0.85-0.1 0.033-0.267 0.083-0.5 0.15-0.233 0.1-0.4 0.167-0.5 0.2-0.1-0.033-0.217-0.067-0.35-0.1z" fill="#E0D6B6"/>
		<path d="m23.3-21c-0.933 0.567-1.783 1.117-2.55 1.65-1.667 0.967-2.733 1.633-3.2 2-0.533 0.367-0.95 0.667-1.25 0.9-0.233 0.067-0.35 0.15-0.35 0.25 0.066-0.033 0.117-0.066 0.15-0.1l0.85-0.15c0.5-0.133 0.917-0.25 1.25-0.35 0.5-0.133 0.9-0.25 1.2-0.35 0.233 0 0.383-0.017 0.45-0.05 0.133-0.033 0.233-0.083 0.3-0.15 0.033 0 0.15-0.05 0.35-0.15 0.033-0.033 0.133-0.167 0.3-0.4 0.2-0.167 0.5-0.45 0.9-0.85 0.367-0.367 0.633-0.667 0.8-0.9 0.267-0.2 0.617-0.467 1.05-0.8l0.7-1.2-0.95 0.65z" fill="#E6DCBC"/>
		<path d="m17.55-17.35c0.467-0.367 1.534-1.033 3.2-2 0.767-0.533 1.617-1.083 2.55-1.65v-0.5c-0.066 0-0.216-0.017-0.45-0.05-0.233-0.067-0.434-0.117-0.6-0.15-0.167 0-0.417 0.017-0.75 0.05h-0.6-0.05c-0.067 0.066-0.133 0.1-0.2 0.1-1.066 0.333-1.75 0.566-2.05 0.7-0.8 0.333-0.733 0.517 0.2 0.55 0.534 0.066 1.25-0.05 2.15-0.35 0.633-0.167 1.25-0.367 1.85-0.6 0.267-0.067 0.417-0.083 0.45-0.05-0.067 0.1-0.167 0.167-0.3 0.2-0.833 0.333-1.7 0.633-2.6 0.9-1.267 0.3-2.233 0.367-2.9 0.2h-0.1l-0.4 0.8c-0.1 0.133-0.184 0.267-0.25 0.4l-0.05 0.05c0 0.033 0.05 0.05 0.15 0.05 0.034 0.067 0.083 0.1 0.15 0.1 0.167 0.167 0.267 0.317 0.3 0.45-0.033 0.033-0.05 0.133-0.05 0.3 0.033 0.133 0.083 0.233 0.15 0.3l0.2 0.2z" fill="#D9D0B0"/>
		<path d="m17.85-24.9c-0.3 0.267-0.583 0.517-0.85 0.75 0.133 0 0.25 0.017 0.35 0.05 0.6 0 1.45-0.033 2.55-0.1 0.167-0.033 0.283-0.05 0.35-0.05l0.2-0.1c0.767-0.467 1.4-0.9 1.9-1.3 0.367-0.267 0.767-0.55 1.2-0.85-0.033 0 0-0.05 0.1-0.15l0.15-0.2v-0.2-0.2c0.067-0.067 0.117-0.167 0.15-0.3 0-0.133 0.05-0.25 0.15-0.35l0.7-0.3c0.133-0.033 0.233-0.066 0.3-0.1 0.033 0.033 0.15 0.083 0.35 0.15 0.066 0.1 0.117 0.167 0.15 0.2 0.1 0.034 0.183 0.067 0.25 0.1 0.066 0.1 0.133 0.133 0.2 0.1 0.133 0.033 0.233 0.033 0.3 0 0.033 0 0.117-0.017 0.25-0.05 0.233-0.067 0.417-0.133 0.55-0.2l0.4-0.1c0.034-0.033 0.067-0.066 0.1-0.1l-7.05-0.3h-0.2c-0.033 0.033-0.066 0.05-0.1 0.05h-0.2-0.25-0.1-0.1l-2.85 0.2c-0.1 0-0.216 0.017-0.35 0.05-0.1 0.034-0.184 0.067-0.25 0.1-0.166 0.103-0.357 0.203-0.575 0.3-0.221 0.092-0.329 0.309-0.325 0.65s0.054 0.733 0.15 1.175c0.099 0.447 0.532 0.756 1.3 0.925l1.1 0.15zm-0.55 0.2l-0.6-0.05c-0.6-0.067-1.067-0.167-1.4-0.3-0.267-0.034-0.483-0.1-0.65-0.2 0.3 0.2 0.733 0.35 1.3 0.45l1.25 0.15 0.1-0.05zm-1.95 1.95c-0.3 0.267-0.583 0.517-0.85 0.75-0.333 0.233-0.65 0.467-0.95 0.7 0.367 0.066 0.717 0.117 1.05 0.15-0.133 0.066-0.2 0.15-0.2 0.25l0.1 0.15c0.033 0.2 0.05 0.317 0.05 0.35-0.1 0.167-0.167 0.267-0.2 0.3-0.167 0.434-0.233 0.8-0.2 1.1 0.067 0.267 0.2 0.5 0.4 0.7l0.55-0.3 0.05-0.1c-0.033-0.033-0.066-0.1-0.1-0.2-0.066-0.267-0.1-0.533-0.1-0.8s0.017-0.517 0.05-0.75l-0.05-0.3c-0.034-0.067 0.117-0.217 0.45-0.45 0.2-0.2 0.467-0.45 0.8-0.75 0.066-0.033 0.133-0.083 0.2-0.15 0.033 0 0.05-0.033 0.05-0.1-0.133-0.1-0.3-0.167-0.5-0.2-0.233-0.133-0.433-0.25-0.6-0.35zm-6.05 7.15c-0.033-0.033 0-0.083 0.1-0.15 0-0.033 0.067-0.083 0.2-0.15l0.15-0.25c0.2-0.133 0.5-0.283 0.9-0.45 0.333-0.133 0.684-0.233 1.05-0.3 0.133 0 0.267-0.017 0.4-0.05 0.133 0.067 0.283 0.067 0.45 0 0.1-0.033 0.217-0.083 0.35-0.15l1.05-0.8c-0.167 0.033-0.317 0.05-0.45 0.05-0.2 0.033-0.533 0.033-1 0-0.433 0.033-0.783 0.067-1.05 0.1-0.1 0.033-0.617 0.083-1.55 0.15-0.1 0.033-0.2 0.05-0.3 0.05-0.533 0.433-1 0.85-1.4 1.25-0.467 0.466-0.917 0.917-1.35 1.35l2.25-0.55 0.2-0.1z" fill="#D4C8A3"/>
		<path d="m30.1-23.6h-0.05c-0.1 0.133-0.2 0.217-0.3 0.25-0.3 0.133-0.1 0.217 0.6 0.25 0.133-0.033 0.117 0-0.05 0.1-0.2 0.133-0.367 0.183-0.5 0.15-0.733 0.033-0.966-0.066-0.7-0.3 0-0.067 0.117-0.184 0.35-0.35 0.133-0.033 0.25-0.083 0.35-0.15h-0.2c-0.067 0-0.25 0.117-0.55 0.35-0.466 0.233-1.183 0.517-2.15 0.85-0.1 0.034-0.283 0.1-0.55 0.2-0.1 0.1-0.167 0.2-0.2 0.3-0.467 0.6-0.783 1.034-0.95 1.3-0.2 0.233-0.35 0.367-0.45 0.4 0 0.067 0.083 0.083 0.25 0.05 0.2 0 0.567-0.017 1.1-0.05 0.233-0.067 0.417-0.117 0.55-0.15h0.05c0.066 0 0.167-0.033 0.3-0.1 0.267-0.067 0.35-0.067 0.25 0-0.03 0.03-0.089 0.047-0.175 0.05h0.175c0.033 0 0.083-0.017 0.15-0.05h0.1c0.067-0.067 0.2-0.133 0.4-0.2 0.167-0.033 0.283-0.066 0.35-0.1 0.3-0.1 0.617-0.233 0.95-0.4-0.1-0.033-0.034-0.1 0.2-0.2l0.15-0.1c-0.4-0.067-0.95-0.067-1.65 0-0.5 0.033-1.033 0.117-1.6 0.25-0.3 0.033-0.4 0-0.3-0.1 0.367-0.566 1.2-0.95 2.5-1.15 0.933-0.233 1.717-0.283 2.35-0.15l-0.05-0.8c-0.158-0.063-0.392-0.113-0.7-0.15zm0.8 1.55c-0.533-0.3-1.25-0.4-2.15-0.3-0.9 0.067-1.55 0.3-1.95 0.7 1.534-0.233 2.7-0.267 3.5-0.1h0.05c0.267-0.133 0.45-0.217 0.55-0.25v-0.05zm-3.1 1c-0.033 0.1-0.117 0.2-0.25 0.3-0.167 0.1-0.4 0.183-0.7 0.25-0.233 0.033-0.333 0-0.3-0.1-0.033-0.1 0.067-0.183 0.3-0.25 0.033 0.033 0.066 0.017 0.1-0.05 0.033-0.067 0.183-0.15 0.45-0.25 0.267-0.033 0.4 0 0.4 0.1z" fill="#EDE4CA"/>
		<path d="m34.95-27.3l-1.05 0.35c-0.533 0.133-1.383 0.383-2.55 0.75-0.2 0.034-0.367 0.067-0.5 0.1 0.066 0.267-0.033 0.65-0.3 1.15-0.066 0.1-0.1 0.167-0.1 0.2 0.033 0.033 0.083 0.05 0.15 0.05 0.066 0.034 0.117 0.067 0.15 0.1 0.033 0.1 0.167 0.233 0.4 0.4s0.35 0.4 0.35 0.7c-0.067 0.333-0.1 0.567-0.1 0.7 0.133-0.067 0.483-0.333 1.05-0.8-0.233 0.133-0.5 0.283-0.8 0.45-0.066 0-0.1-0.15-0.1-0.45-0.033-0.133-0.017-0.283 0.05-0.45 0.033-0.067 0.033-0.2 0-0.4-0.033-0.167-0.017-0.267 0.05-0.3 0.1-0.133 0.517-0.333 1.25-0.6 0.367-0.133 0.833-0.283 1.4-0.45v-0.05h0.05l0.05-0.05 0.15-0.05 1.95-0.8c0.067 0 0.117-0.033 0.15-0.1-0.167-0.033-0.367-0.083-0.6-0.15l-0.95-0.25c-0.067 0-0.117-0.017-0.15-0.05zm2.1 0.65l-0.5 0.45c0.2-0.133 0.4-0.267 0.6-0.4l-0.1-0.05z" fill="#D9CFB0"/>
		<path d="m15.35-22.75c0.467-0.467 1.017-0.933 1.65-1.4 0.267-0.233 0.55-0.483 0.85-0.75l-0.55 0.2-0.1 0.05c-0.233 0.167-0.434 0.316-0.6 0.45-0.533 0.434-1.083 0.883-1.65 1.35-0.567 0.533-1.15 1.05-1.75 1.55-0.434 0.333-0.817 0.7-1.15 1.1-1.066 0.9-2.033 1.784-2.9 2.65-0.433 0.433-0.85 0.833-1.25 1.2-0.4 0.4-0.816 0.833-1.25 1.3l-0.25 0.3c-0.066 0.1-0.133 0.2-0.2 0.3-0.8 0.833-1.45 1.583-1.95 2.25l-0.05 0.05 0.5-0.15 0.8-1.05c0.3-0.4 0.633-0.783 1-1.15 0.1-0.133 0.217-0.283 0.35-0.45l1.35-1.35c0.4-0.4 0.867-0.817 1.4-1.25 1.133-1.133 2.45-2.383 3.95-3.75 0.3-0.233 0.617-0.467 0.95-0.7 0.267-0.233 0.55-0.483 0.85-0.75z" fill="#FFF8E0"/>
			<radialGradient id="SVGID_1_" gradientUnits="userSpaceOnUse" cy="-14848" cx="-2001.6" gradientTransform="matrix(.1621 -.9868 -.8348 -.241 -12023 -5560.5)" r="45.806">
			<stop stop-color="#F7F2DC" offset="0"/>
			<stop stop-color="#D6CAA3" offset="1"/>
		</radialGradient>
		<path d="m54.15-23.65h0.1c0-0.033 0.033-0.1 0.1-0.2-0.133 0.1-0.2 0.167-0.2 0.2zm-16.6 10l-1.35 1.1c-0.034 0.066-0.1 0.167-0.2 0.3 0.1-0.033 0.217-0.05 0.35-0.05 0.9-0.167 1.75-0.4 2.55-0.7-0.133-0.233-0.167-0.367-0.1-0.4-0.267-0.3-0.483-0.567-0.65-0.8l-0.15-0.15c-0.067-0.033-0.133-0.066-0.2-0.1 1.167-0.466 1.9-0.75 2.2-0.85 0.7-0.434 1.233-0.784 1.6-1.05 0.167-0.133 0.316-0.3 0.45-0.5 0.233-0.267 0.383-0.417 0.45-0.45h-0.6c-0.2-0.034-0.4-0.034-0.6 0-0.1 0-0.316 0.017-0.65 0.05-0.333 0.067-0.55 0.117-0.65 0.15-0.067-0.033-0.05-0.117 0.05-0.25 0-0.1 0.017-0.183 0.05-0.25-0.033-0.267-0.1-0.5-0.2-0.7-0.1-0.133-0.1-0.284 0-0.45 0.033 0 0.117-0.05 0.25-0.15 0.1 0 0.25-0.05 0.45-0.15 0.267-0.067 1.083-0.35 2.45-0.85 0.967-0.4 1.75-0.733 2.35-1 0.1 0 0.217-0.033 0.35-0.1l0.25-0.05c0.233 0 0.75 0.033 1.55 0.1 0.1 0.034 0.284 0.067 0.55 0.1l-0.85 0.65 0.15-0.05c0.233-0.033 0.483-0.117 0.75-0.25 0.2-0.1 0.434-0.25 0.7-0.45 0.1-0.033 0.267-0.117 0.5-0.25 0.2-0.066 0.35-0.15 0.45-0.25 0.1-0.066 0.267-0.15 0.5-0.25 0.133-0.1 0.167-0.2 0.1-0.3-0.033-0.067-0.1-0.117-0.2-0.15-0.133-0.033-0.317-0.05-0.55-0.05 0.067-0.133 0.3-0.316 0.7-0.55 0.051-0.026 0.151-0.092 0.3-0.2-1.685 0.071-3.585-0.179-5.7-0.75-0.434 0.2-0.867 0.417-1.3 0.65l-0.1 0.05c-0.466 0.333-0.767 0.517-0.9 0.55 0-0.1 0.033-0.183 0.1-0.25 0.333-0.433 0.7-0.867 1.1-1.3l-0.15-0.05c-0.333 0.267-0.784 0.683-1.35 1.25-0.233 0.133-0.4 0.283-0.5 0.45-0.4 0.3-0.583 0.45-0.55 0.45-1.333 0.2-2.216 0.333-2.65 0.4-0.467 0.067-0.883 0.167-1.25 0.3l-0.3 0.1c-0.333-0.066-0.6-0.217-0.8-0.45-0.133-0.1-0.25-0.284-0.35-0.55-0.2-0.2-0.367-0.383-0.5-0.55-0.067-0.033-0.133-0.067-0.2-0.1 0-0.033 0.1-0.117 0.3-0.25 0.067-0.067 0.167-0.133 0.3-0.2 0.433-0.333 0.75-0.566 0.95-0.7 0-0.033 0.15-0.1 0.45-0.2 0.167-0.066 0.367-0.15 0.6-0.25 1.133-0.3 1.95-0.617 2.45-0.95l0.15-0.15c-0.333-0.066-0.7-0.2-1.1-0.4-0.733-0.3-1.467-0.566-2.2-0.8h-0.1l0.1 0.05c-0.2 0.133-0.4 0.267-0.6 0.4l-0.85 0.6c-0.2 0-0.617 0.217-1.25 0.65-0.3 0.167-0.55 0.317-0.75 0.45-0.067 0.033-0.15 0.083-0.25 0.15-0.067 0.067-0.267 0.217-0.6 0.45-0.1 0.1-0.233 0.2-0.4 0.3-0.567 0.467-0.917 0.733-1.05 0.8 0-0.133 0.033-0.367 0.1-0.7 0-0.3-0.117-0.533-0.35-0.7s-0.367-0.3-0.4-0.4c-0.033-0.033-0.083-0.066-0.15-0.1-0.067 0-0.117-0.017-0.15-0.05 0-0.033 0.033-0.1 0.1-0.2 0.267-0.5 0.367-0.883 0.3-1.15 0.133-0.033 0.3-0.066 0.5-0.1 1.167-0.367 2.017-0.617 2.55-0.75l1.05-0.35c-0.567-0.034-1.1-0.117-1.6-0.25l-1.45 0.6c-0.066 0.067-0.367 0.217-0.9 0.45-0.2 0.133-0.433 0.233-0.7 0.3-0.133 0.1-0.25 0.15-0.35 0.15 0.566-0.7 1.05-1.3 1.45-1.8-0.633-0.1-1.333-0.183-2.1-0.25h-0.1c-0.267 0.333-0.5 0.583-0.7 0.75-0.067 0.067-0.133 0.117-0.2 0.15-0.167 0.1-0.283 0.167-0.35 0.2-0.1-0.033-0.1-0.067 0-0.1 0.133-0.267 0.233-0.617 0.3-1.05-0.2 0-0.4-0.017-0.6-0.05-0.033 0.034-0.066 0.067-0.1 0.1l-0.4 0.1c-0.133 0.067-0.316 0.133-0.55 0.2-0.133 0.033-0.217 0.05-0.25 0.05-0.067 0.033-0.167 0.033-0.3 0-0.066 0.033-0.133 0-0.2-0.1-0.067-0.033-0.15-0.066-0.25-0.1-0.033-0.033-0.083-0.1-0.15-0.2-0.2-0.067-0.317-0.117-0.35-0.15-0.067 0.033-0.167 0.066-0.3 0.1l-0.7 0.3c-0.1 0.1-0.15 0.217-0.15 0.35-0.034 0.133-0.083 0.233-0.15 0.3v0.2 0.2l-0.15 0.2c-0.1 0.1-0.133 0.15-0.1 0.15-0.433 0.3-0.833 0.583-1.2 0.85-0.5 0.4-1.133 0.833-1.9 1.3l-0.2 0.1c-0.067 0-0.183 0.017-0.35 0.05-1.1 0.067-1.95 0.1-2.55 0.1-0.1-0.033-0.217-0.05-0.35-0.05-0.633 0.467-1.183 0.933-1.65 1.4 0.167 0.1 0.367 0.217 0.6 0.35 0.2 0.033 0.367 0.1 0.5 0.2 0 0.067-0.017 0.1-0.05 0.1-0.066 0.067-0.133 0.117-0.2 0.15-0.333 0.3-0.6 0.55-0.8 0.75-0.333 0.233-0.483 0.383-0.45 0.45l0.05 0.3c-0.033 0.233-0.05 0.483-0.05 0.75s0.033 0.534 0.1 0.8c0.034 0.1 0.067 0.167 0.1 0.2l-0.05 0.1-0.55 0.3 0.1 0.15c-0.066 0.033-0.1 0.033-0.1 0-0.133 0.133-0.333 0.217-0.6 0.25l-1.05 0.8c-0.133 0.067-0.25 0.117-0.35 0.15-0.167 0.067-0.316 0.067-0.45 0-0.133 0.034-0.267 0.05-0.4 0.05-0.367 0.066-0.717 0.167-1.05 0.3-0.4 0.167-0.7 0.317-0.9 0.45l-0.15 0.25c-0.133 0.066-0.2 0.117-0.2 0.15-0.1 0.067-0.133 0.117-0.1 0.15 0.067-0.066 0.184-0.15 0.35-0.25-0.233 0.267-0.417 0.483-0.55 0.65s-0.217 0.3-0.25 0.4l-0.05 0.15c1.967-0.1 4.034-0.1 6.2 0 0.042 0.021 0.101 0.021 0.175 0h0.025l0.025-0.025c0.23-0.129 0.472-0.304 0.725-0.525v0.1l-0.05 0.1-0.1 0.35h0.25c0.367-0.233 1.034-0.684 2-1.35-0.066 0.167-0.167 0.333-0.3 0.5-0.1 0.133-0.167 0.25-0.2 0.35-0.066 0.3-0.133 0.5-0.2 0.6 0.617 0.032 1.25 0.066 1.9 0.1l-0.1-0.05c-0.066-0.033-0.083-0.067-0.05-0.1l0.25-0.3 0.05-0.2c0.1-0.133 0.267-0.316 0.5-0.55 0.167-0.267 0.317-0.467 0.45-0.6 0.167-0.233 0.316-0.4 0.45-0.5 0.167-0.133 0.367-0.3 0.6-0.5 0.267-0.267 0.45-0.433 0.55-0.5 0.133-0.1 0.267-0.167 0.4-0.2 0.1-0.033 0.217-0.05 0.35-0.05s0.267-0.017 0.4-0.05l0.05 0.025c0.025 0.002 0.076-0.006 0.15-0.025 0.133-0.067 0.25-0.133 0.35-0.2h0.7c-0.367-0.033-0.75-0.05-1.15-0.05-0.233 0.033-0.1-0.067 0.4-0.3 0.7-0.167 1.25-0.267 1.65-0.3 0.6-0.133 1.083-0.283 1.45-0.45-0.2-0.033-0.467-0.05-0.8-0.05-0.2 0-0.483-0.033-0.85-0.1-0.1-0.033-0.066-0.1 0.1-0.2 0.1-0.033 0.367-0.133 0.8-0.3 0.4-0.167 0.633-0.283 0.7-0.35v-0.05c-0.133 0.033-0.316 0.083-0.55 0.15-0.533 0.033-0.9 0.05-1.1 0.05-0.167 0.034-0.25 0.017-0.25-0.05 0.1-0.033 0.25-0.167 0.45-0.4 0.167-0.267 0.483-0.7 0.95-1.3 0.033-0.1 0.1-0.2 0.2-0.3 0.267-0.1 0.45-0.167 0.55-0.2 0.967-0.333 1.684-0.617 2.15-0.85 0.3-0.233 0.483-0.35 0.55-0.35h0.2c0.1-0.033 0.167-0.067 0.2-0.1 0.133-0.1 0.3-0.167 0.5-0.2 0.067 0 0.1 0.017 0.1 0.05-0.033 0.033-0.033 0.05 0 0.05-0.167 0.067-0.333 0.15-0.5 0.25 0.308 0.037 0.542 0.087 0.7 0.15l0.05 0.8c0.2 0.1 0.417 0.217 0.65 0.35 0.067 0.066-0.017 0.117-0.25 0.15-0.2 0.1-0.317 0.133-0.35 0.1v0.05c-0.1 0.033-0.283 0.117-0.55 0.25-0.033 0.033-0.067 0.083-0.1 0.15-0.133 0.067-0.333 0.167-0.6 0.3-0.233 0.066-0.383 0.1-0.45 0.1-0.333 0.167-0.65 0.3-0.95 0.4-0.067 0.033-0.183 0.066-0.35 0.1-0.2 0.067-0.333 0.133-0.4 0.2h-0.1c-0.066 0.033-0.117 0.05-0.15 0.05h-0.2c-0.066 0.1-0.216 0.2-0.45 0.3s-0.517 0.2-0.85 0.3c0.467 0.067 0.783 0.1 0.95 0.1 0.367 0.067 0.65 0.133 0.85 0.2 0.067 0 0.05 0.017-0.05 0.05-0.1 0.067-0.15 0.117-0.15 0.15-0.633 0.233-1.533 0.483-2.7 0.75 0.434 0.033 0.817 0.1 1.15 0.2l-0.05 0.05c0.233-0.033 0.567-0.1 1-0.2l1-0.1h0.7c0.233-0.033 0.433-0.05 0.6-0.05l-0.65 0.45c0.567-0.267 1.033-0.483 1.4-0.65 0.034 0 0.05-0.017 0.05-0.05 0.033-0.066 0.15-0.117 0.35-0.15 0.167-0.066 0.3-0.133 0.4-0.2-0.2-0.034-0.4-0.05-0.6-0.05-0.133 0-0.083-0.066 0.15-0.2 0.133-0.1 0.233-0.133 0.3-0.1 0.466 0.066 1 0.033 1.6-0.1-0.367 0.033-0.617 0.017-0.75-0.05s-0.1-0.167 0.1-0.3c0.167-0.133 0.25-0.217 0.25-0.25 0.067-0.066 0.184-0.15 0.35-0.25h0.15c0.133-0.033 0.184-0.017 0.15 0.05 0.034 0.033-0.066 0.1-0.3 0.2-0.1 0.133-0.1 0.2 0 0.2 0.067 0.066 0.267 0.117 0.6 0.15 0.367 0.033 0.6 0.067 0.7 0.1s0.067 0.083-0.1 0.15c-0.133 0.067-0.233 0.1-0.3 0.1-0.533 0.1-1.017 0.2-1.45 0.3-0.233 0-0.434 0.017-0.6 0.05l0.7 2.25c-0.466 0.3-0.833 0.517-1.1 0.65-0.434 0.233-1.017 0.55-1.75 0.95-0.067 0.067-0.217 0.117-0.45 0.15l-1.3 0.25c-0.567 0.167-1 0.283-1.3 0.35l-0.45 0.1c-0.034-0.033-0.05-0.117-0.05-0.25 0.033-0.066 0.05-0.15 0.05-0.25 0.033-0.066 0.066-0.167 0.1-0.3v-0.25l-0.1-0.05c-0.034 0-0.034-0.017 0-0.05 0-0.067 0.05-0.117 0.15-0.15 0-0.067 0.033-0.117 0.1-0.15 0-0.067 0.083-0.133 0.25-0.2 0.234-0.234 0.584-0.567 1.05-1-0.167 0.1-0.5 0.283-1 0.55-0.467 0.2-0.783 0.333-0.95 0.4-1.267 0.667-2.233 1.216-2.9 1.65-0.133 0.066-0.217 0.117-0.25 0.15-0.1 0.033-0.183 0.133-0.25 0.3 1.7 0.233 3.217 0.534 4.55 0.9l0.25-0.05 0.45-0.15-0.05 0.15-0.05 0.15 1 0.3 1.2-0.75c-0.033 0.133-0.15 0.25-0.35 0.35-0.1 0.033-0.167 0.133-0.2 0.3l1.3-0.85c0.8-0.367 1.633-0.733 2.5-1.1-0.433-0.033-0.833-0.05-1.2-0.05-0.066 0-0.033-0.05 0.1-0.15 0.133-0.067 0.267-0.117 0.4-0.15 0.367 0.033 0.784 0.017 1.25-0.05 0.133-0.033 0.3-0.066 0.5-0.1-0.066 0.034-0.117 0.083-0.15 0.15 0.3-0.034 0.583-0.05 0.85-0.05 0.433-0.033 1.267-0.117 2.5-0.25 0.1 0 0.117 0.017 0.05 0.05-0.1 0.066-0.183 0.117-0.25 0.15-0.2 0.066-0.65 0.25-1.35 0.55-0.6 0.267-0.9 0.45-0.9 0.55 0.034 0.066-0.033 0.133-0.2 0.2-0.233 0.1-0.333 0.117-0.3 0.05-0.066-0.167 0.15-0.383 0.65-0.65 0.3-0.133 0.767-0.333 1.4-0.6-1.033 0.133-1.783 0.216-2.25 0.25-0.167 0-0.35 0.017-0.55 0.05 0.034 0 0.034 0.017 0 0.05-0.3 0.333-0.55 0.667-0.75 1-0.5 0.767-0.767 1.4-0.8 1.9 0.567 0.066 1.167 0.083 1.8 0.05 0.333-0.1 0.684-0.233 1.05-0.4h0.1l0.35-0.2-0.2 0.6 0.85-0.15c0.233-0.2 0.383-0.3 0.45-0.3l0.8-0.45 1.2-0.65 0.25-0.2-0.1 0.1zm17.375-10.65c-0.106 0.057-0.182 0.106-0.225 0.15 0.03-0.001 0.096-0.026 0.2-0.075l0.05-0.025h0.05c0.067-0.067 0.167-0.15 0.3-0.25l0.05-0.1c-0.098 0.091-0.198 0.174-0.3 0.25-0.026 0.011-0.051 0.02-0.075 0.025l-0.05 0.025zm-31.925 1.9c-0.1 0-0.167-0.017-0.2-0.05-0.1-0.033-0.1-0.1 0-0.2 0.034-0.033 0.133-0.1 0.3-0.2 0.133-0.1 0.3-0.15 0.5-0.15 0.2-0.033 0.267 0 0.2 0.1 0.1 0 0.167 0.017 0.2 0.05 0.033 0.067-0.017 0.117-0.15 0.15-0.2 0.1-0.333 0.167-0.4 0.2-0.167 0.067-0.317 0.1-0.45 0.1zm0.65-0.95v-0.05c0.067-0.167 0.417-0.3 1.05-0.4 0.133 0 0.133 0.033 0 0.1h0.1c0.034 0 0.034 0.017 0 0.05-0.066 0.066-0.117 0.1-0.15 0.1-0.167 0.1-0.316 0.167-0.45 0.2h-0.2c-0.133 0.033-0.25 0.033-0.35 0zm12.95 5.1c-0.467 0.133-0.533 0.217-0.2 0.25 0.167 0 0.167 0.033 0 0.1-0.1 0.1-0.183 0.15-0.25 0.15-0.267 0.067-0.617 0.117-1.05 0.15v0.05c0 0.033-0.033 0.1-0.1 0.2-0.1 0.133-0.183 0.2-0.25 0.2-0.367 0.233-0.433 0.35-0.2 0.35 0.8-0.133 1.617-0.217 2.45-0.25 0.1 0.033 0.083 0.083-0.05 0.15-0.133 0.066-0.25 0.117-0.35 0.15-0.733 0.1-1.383 0.167-1.95 0.2l-0.35 0.05c-0.733 0.133-1.183 0.217-1.35 0.25 0.133-0.1 0.367-0.183 0.7-0.25l-0.3-0.1c-0.133 0.033-0.167 0.017-0.1-0.05l0.1-0.1c0.566-0.267 0.867-0.433 0.9-0.5 0.033-0.1-0.383-0.167-1.25-0.2-0.1 0.034-0.083-0.017 0.05-0.15 0.133-0.1 0.3-0.15 0.5-0.15l0.45 0.05c0.433 0 0.9-0.05 1.4-0.15l0.05-0.05c0.2-0.2 0.417-0.333 0.65-0.4-0.633 0-0.934-0.05-0.9-0.15 0.033-0.233 0.4-0.533 1.1-0.9 0.934-0.566 1.467-0.883 1.6-0.95 0.067-0.067 0.2-0.117 0.4-0.15s0.233 0 0.1 0.1c-0.5 0.4-1.017 0.733-1.55 1-0.367 0.233-0.6 0.367-0.7 0.4-0.267 0.2-0.217 0.317 0.15 0.35h0.8c0.5-0.066 0.767-0.117 0.8-0.15 0.2 0.033 0.233 0.083 0.1 0.15s-0.267 0.1-0.4 0.1c-0.367 0.1-0.7 0.183-1 0.25zm-15.7-3.4h0.6c0.333-0.033 0.583-0.05 0.75-0.05 0.167 0.034 0.367 0.083 0.6 0.15 0.233 0.033 0.383 0.05 0.45 0.05v0.5l0.95-0.65-0.7 1.2c-0.433 0.333-0.783 0.6-1.05 0.8-0.167 0.233-0.433 0.533-0.8 0.9-0.4 0.4-0.7 0.683-0.9 0.85-0.167 0.233-0.267 0.367-0.3 0.4-0.2 0.1-0.317 0.15-0.35 0.15-0.066 0.067-0.167 0.117-0.3 0.15-0.067 0.034-0.217 0.05-0.45 0.05-0.3 0.1-0.7 0.217-1.2 0.35-0.333 0.1-0.75 0.216-1.25 0.35l-0.85 0.15c-0.033 0.033-0.083 0.066-0.15 0.1 0-0.1 0.117-0.183 0.35-0.25 0.3-0.233 0.717-0.533 1.25-0.9l-0.2-0.2c-0.067-0.067-0.117-0.167-0.15-0.3 0-0.167 0.017-0.267 0.05-0.3-0.033-0.133-0.133-0.283-0.3-0.45-0.067 0-0.117-0.033-0.15-0.1-0.1 0-0.15-0.017-0.15-0.05l0.05-0.05c0.066-0.133 0.15-0.267 0.25-0.4l0.4-0.8h0.05c-0.867-0.267-0.066-0.75 2.4-1.45h-0.1c-0.067-0.033-0.083-0.066-0.05-0.1 0.033-0.167 0.15-0.333 0.35-0.5 0.133-0.133 0.4-0.3 0.8-0.5l-0.15 0.05-0.05-0.05 0.05-0.05c0.1-0.167 0.15-0.283 0.15-0.35 0-0.033 0.05-0.117 0.15-0.25-0.034-0.033 0.05-0.133 0.25-0.3v-0.05c-0.6 0.3-1.117 0.517-1.55 0.65-0.633 0.2-1.3 0.35-2 0.45-0.2 0-0.25-0.033-0.15-0.1 0.033-0.034 0.067-0.083 0.1-0.15 1.133-0.7 2.65-1.183 4.55-1.45 0.567-0.167 0.983-0.317 1.25-0.45 0.4-0.233 0.817-0.383 1.25-0.45 0.2-0.034 0.233 0 0.1 0.1-0.2 0.1-0.367 0.167-0.5 0.2-0.533 0.133-1.133 0.333-1.8 0.6 0.066 0.033 0.1 0.066 0.1 0.1l-0.05 0.05c-0.9 0.733-1.167 1.117-0.8 1.15 0.066 0.033 0.05 0.083-0.05 0.15s-0.2 0.1-0.3 0.1c-1.133 0.567-1.233 0.817-0.3 0.75 0.067 0 0.05 0.033-0.05 0.1-0.033 0.065-0.066 0.099-0.1 0.1zm-14.4 7.15c0.367-0.033 0.767-0.067 1.2-0.1l0.3-0.2c0.2-0.233 0.567-0.467 1.1-0.7l-2.25 0.55c-0.133 0.167-0.25 0.317-0.35 0.45zm26.35-1.5c-0.033-0.067-0.017-0.133 0.05-0.2 0.033 0.034 0.133 0.034 0.3 0 0.1 0.034 0.183 0.017 0.25-0.05 0.167 0 0.2 0.033 0.1 0.1-0.033 0.1-0.117 0.167-0.25 0.2l-1 0.35c-0.2 0.067-0.333 0.117-0.4 0.15-0.133-0.033-0.133-0.117 0-0.25 0.3-0.133 0.617-0.233 0.95-0.3zm0.35-5.15l-0.45 0.05c0.033 0.033 0.083 0.067 0.15 0.1 0.033 0.067-0.017 0.117-0.15 0.15-0.133 0.067-0.25 0.117-0.35 0.15-0.233 0.034-0.467 0.05-0.7 0.05-0.067 0-0.034-0.05 0.1-0.15 0.133-0.1 0.267-0.167 0.4-0.2 0.066-0.167 0.3-0.283 0.7-0.35l0.5-0.05c0.2-0.033 0.3-0.083 0.3-0.15l-0.25-0.05c-0.167 0-0.367 0.017-0.6 0.05-0.1 0.033-0.3 0.066-0.6 0.1-0.133 0.034-0.2 0.034-0.2 0-0.033-0.033-0.033-0.066 0-0.1 0.233-0.167 0.517-0.3 0.85-0.4 0.3-0.1 0.717-0.183 1.25-0.25 0.033-0.133 0.117-0.25 0.25-0.35l0.5-0.4c0.067-0.066 0.2-0.117 0.4-0.15s0.233 0 0.1 0.1c-0.3 0.2-0.467 0.317-0.5 0.35-0.167 0.167-0.217 0.283-0.15 0.35 0 0.066-0.067 0.133-0.2 0.2s-0.25 0.117-0.35 0.15c-0.18 0.02-0.346 0.037-0.5 0.05 0.474-0.018 0.741 0.032 0.8 0.15-0.033 0.067-0.117 0.15-0.25 0.25s-0.283 0.183-0.45 0.25c-0.2 0.067-0.4 0.1-0.6 0.1zm-14.6-1.75c0.8-0.033 1.717-0.317 2.75-0.85-0.2-0.067-0.867 0.083-2 0.45-1.167 0.333-1.417 0.467-0.75 0.4zm1.25-5.55h0.25 0.2l-0.1-0.05c-0.121 0.03-0.238 0.047-0.35 0.05z" fill="url(#SVGID_1_)"/>
			<radialGradient id="SVGID_2_" gradientUnits="userSpaceOnUse" cy="-14856" cx="-1976.3" gradientTransform="matrix(.1615 -.9869 -.8899 -.2555 -12854 -5770.9)" r="4.2559">
			<stop stop-color="#B3A983" offset="0"/>
			<stop stop-color="#8C7F53" offset="1"/>
		</radialGradient>
		<path d="m50.6-23.75h-1.7v0.05c0.283 0.007 0.567 0.007 0.85 0 0.416-0.01 0.833-0.035 1.25-0.075l-0.4 0.025zm3.15-2.85l-2.55 2.8c0.445 0.237 0.937 0.237 1.475 0 0.538-0.242 1.046-0.442 1.525-0.6l0.45-0.2c0.434-0.167 0.733-0.367 0.9-0.6 0.067-0.133 0.1-0.267 0.1-0.4-0.085-0.24-0.402-0.456-0.95-0.65-0.056-0.015-0.114-0.031-0.175-0.05-0.088-0.027-0.347-0.127-0.775-0.3z" fill="url(#SVGID_2_)"/>
			<radialGradient id="SVGID_3_" gradientUnits="userSpaceOnUse" cy="-17" cx="9.9502" gradientTransform="matrix(.7478 .6639 -1.7946 2.0213 -28 10.757)" r="5.153">
			<stop stop-color="#F7F2DC" offset="0"/>
			<stop stop-color="#D6CAA3" offset="1"/>
		</radialGradient>
		<path d="m17.2-24.65l-1.25-0.15c-0.567-0.1-1-0.25-1.3-0.45-0.267-0.1-0.475-0.292-0.625-0.575s-0.191-0.542-0.125-0.775c0.067-0.233 0.1-0.383 0.1-0.45 0.1-0.2 0.183-0.367 0.25-0.5-0.298 0.198-0.448 0.273-0.45 0.225-0.006-0.045-1.48 1.463-4.425 4.525-2.942 3.062-4.817 4.971-5.625 5.725-0.813 0.757-1.414 1.399-1.8 1.925-0.273 0.371-0.457 0.538-0.55 0.5-0.05 0.181-0.034 0.598 0.05 1.25 0.088 0.66 0.555 1.077 1.4 1.25h1.35l0.05-0.05c0.5-0.667 1.15-1.417 1.95-2.25 0.066-0.1 0.133-0.2 0.2-0.3l0.25-0.3c0.434-0.467 0.85-0.9 1.25-1.3 0.4-0.367 0.817-0.767 1.25-1.2 0.867-0.867 1.833-1.75 2.9-2.65 0.333-0.4 0.717-0.767 1.15-1.1 0.6-0.5 1.183-1.017 1.75-1.55 0.566-0.467 1.117-0.917 1.65-1.35 0.167-0.133 0.367-0.283 0.6-0.45z" fill="url(#SVGID_3_)"/>
	</g>
</symbol>
<linearGradient id="SVGID_4_" y2="-3.9023" gradientUnits="userSpaceOnUse" x2="38.307" gradientTransform="matrix(-.0335 .9994 -.9994 -.0335 .00030813 -.00020631)" y1="-3.9023" x1="27.101">
	<stop stop-color="#C8D146" offset="0"/>
	<stop stop-color="#7D8523" offset="1"/>
</linearGradient>
<polygon fill-rule="evenodd" points="2.75 35.25 2.65 35.3 2.8 35.2" clip-rule="evenodd" fill="url(#SVGID_4_)"/>
<use xlink:href="#Symbol_1" transform="matrix(1 0 0 -1 5.2002 21.25)" height="16.987" width="54.878" y="-28.97" x="1.372"/>
<g clip-rule="evenodd" fill-rule="evenodd">
		<linearGradient id="SVGID_5_" y2="-43.501" gradientUnits="userSpaceOnUse" x2="11.372" gradientTransform="matrix(-.973 .231 -.6156 -.8817 -.00080591 -.00043657)" y1="-43.501" x1="-.8584">
		<stop stop-color="#ADB53C" offset="0"/>
		<stop stop-color="#6C731E" offset="1"/>
	</linearGradient>
	<path d="m18.05 37.15c-0.167 0.066-0.35 0.133-0.55 0.199-0.567 0.167-1.033 0.367-1.4 0.601-0.2-0.2-0.35-0.334-0.45-0.4-0.1-0.1-0.15-0.166-0.15-0.2-0.1-0.166-0.083-0.283 0.05-0.35s0.333-0.116 0.6-0.15c0.233-0.033 0.483-0.017 0.75 0.051 0.133 0 0.467 0.066 1 0.199 0.033 0.034 0.083 0.05 0.15 0.05zm2.35-0.3c-0.633-0.033-1.217 0.017-1.75 0.15-0.033-0.066-0.083-0.15-0.15-0.25-0.03-0.029-0.046-0.063-0.05-0.1l0.05-0.05c-0.067-0.1-0.083-0.183-0.05-0.25 0.066-0.133 0.233-0.166 0.5-0.1 0.2 0.066 0.4 0.134 0.6 0.2 0.3 0.133 0.583 0.267 0.85 0.4zm2.15 0.05c-0.533-0.067-1.066-0.101-1.6-0.101 0-0.066 0.05-0.184 0.15-0.35 0.066-0.167 0.15-0.283 0.25-0.351l0.05-0.05c0.033 0 0.067-0.017 0.1-0.05h0.05c0.067 0.033 0.133 0.066 0.2 0.1 0.1 0.034 0.183 0.117 0.25 0.25 0.1 0.034 0.233 0.167 0.4 0.4 0.033 0.035 0.083 0.085 0.15 0.152zm0.45 0.15c0.033-0.033 0.083-0.083 0.15-0.149 0.2-0.067 0.367-0.117 0.5-0.15h0.2c0.066 0 0.15-0.017 0.25-0.05h0.15c0.233 0 0.417 0.05 0.55 0.149 0.1 0.101 0.167 0.217 0.2 0.351 0.067 0.133 0.1 0.25 0.1 0.35 0.333-0.066 0.583-0.1 0.75-0.1 0.1 0 0.25 0.017 0.45 0.05 0.167 0 0.3 0.017 0.4 0.05 0.133 0.033 0.216 0.084 0.25 0.15 0 0.066 0.017 0.149 0.05 0.25 0.033 0.066 0.05 0.116 0.05 0.149-0.033 0.034-0.066 0.067-0.1 0.101-0.034 0.033-0.133 0.133-0.3 0.3-0.733-0.6-1.75-1.05-3.05-1.35-0.2-0.068-0.4-0.101-0.6-0.101zm5.75 2.2l-0.2 0.2c-0.2 0.133-0.383 0.217-0.55 0.25-0.067 0.033-0.167 0.066-0.3 0.1 0-0.1-0.05-0.2-0.15-0.3-0.2-0.333-0.466-0.634-0.8-0.9l0.3 0.051c0.367 0 0.65 0.033 0.85 0.1 0.4 0.1 0.667 0.184 0.8 0.25s0.15 0.149 0.05 0.249zm-1.9 2.3c0.033 0.101 0.117 0.233 0.25 0.4 0.066 0.1 0.1 0.184 0.1 0.25v0.1c-0.034 0-0.083 0.017-0.15 0.05-0.5 0.034-0.95-0.05-1.35-0.25-0.034 0-0.233-0.05-0.6-0.149 0.333-0.066 0.65-0.15 0.95-0.25 0.3-0.101 0.534-0.184 0.7-0.25 0.033-0.001 0.067 0.032 0.1 0.099zm2.05-0.45c-0.033 0.067-0.117 0.084-0.25 0.051-0.2 0.066-0.333 0.083-0.4 0.05-0.367 0.066-0.667 0.083-0.9 0.05l-0.25-0.051c0.533-0.334 0.767-0.717 0.7-1.15 0.1 0.033 0.217 0.101 0.35 0.2 0.167 0.066 0.3 0.134 0.4 0.2 0.067 0.066 0.15 0.184 0.25 0.35 0 0.033 0.034 0.084 0.1 0.15 0.033 0.033 0.05 0.066 0.05 0.1s-0.017 0.05-0.05 0.05zm-9.95 1.05h-0.05c0.033-0.067 0.05-0.117 0.05-0.15 0.233 0.066 0.483 0.1 0.75 0.1 0.9 0.101 1.733 0.15 2.5 0.15-0.1 0.033-0.233 0.083-0.4 0.15-0.233 0.033-0.4 0.083-0.5 0.149-0.066 0.033-0.133 0.084-0.2 0.15-0.067 0.033-0.15 0.1-0.25 0.2-0.067 0.066-0.167 0.116-0.3 0.149-0.1 0.033-0.167 0.05-0.2 0.05 0-0.033-0.033-0.066-0.1-0.1-0.167-0.033-0.35-0.1-0.55-0.2s-0.35-0.184-0.45-0.25c-0.133-0.098-0.233-0.232-0.3-0.398zm-1.4-0.55c0.333 0.134 0.7 0.233 1.1 0.301-0.167 0.033-0.383 0.083-0.65 0.149l-0.45-0.45zm-2.45-2.1l0.15-0.05c0 0.066 0.017 0.149 0.05 0.25-0.033-0.066-0.083-0.117-0.15-0.15l-0.05-0.05zm0.15-0.35c-0.233-0.067-0.383-0.117-0.45-0.15-0.193-0.064-0.343-0.147-0.45-0.25l-0.5-0.45c-0.033-0.033-0.05-0.066-0.05-0.1-0.033 0-0.033-0.017 0-0.05 0.034-0.034 0.133-0.034 0.3 0 0.1-0.034 0.217-0.034 0.35 0 0.333-0.067 0.583-0.101 0.75-0.101h0.05c0.067 0 0.233 0.017 0.5 0.05 0.067 0.034 0.133 0.051 0.2 0.051-0.167 0.066-0.284 0.166-0.35 0.3-0.2 0.2-0.317 0.434-0.35 0.7zm9.55 2.9c-0.066 0.101-0.15 0.217-0.25 0.351-0.066 0.199-0.267 0.3-0.6 0.3-0.1 0.033-0.3 0-0.6-0.101-0.267-0.033-0.533-0.116-0.8-0.25-0.1-0.033-0.183-0.05-0.25-0.05 0.9-0.033 1.733-0.116 2.5-0.25z" fill="url(#SVGID_5_)"/>
	<path d="m18.65 37c-0.033 0-0.066 0.017-0.1 0.05 0-0.066-0.017-0.133-0.05-0.2-0.03-0.09-0.047-0.156-0.05-0.199 0.003 0.036 0.02 0.07 0.05 0.1 0.067 0.099 0.117 0.183 0.15 0.249zm10.1 2.25c0.033 0.033 0.05 0.066 0.05 0.1-0.033 0-0.133 0.084-0.3 0.25-0.033 0-0.067 0.017-0.1 0.051-0.233 0.1-0.45 0.199-0.65 0.3 0-0.033-0.017-0.084-0.05-0.15 0.133-0.033 0.233-0.066 0.3-0.1 0.167-0.033 0.35-0.117 0.55-0.25l0.2-0.201zm-2.1-0.75l0.3-0.3c0.033-0.033 0.066-0.066 0.1-0.101 0 0.067-0.017 0.134-0.05 0.2s-0.117 0.167-0.25 0.3c-0.033 0.001-0.067-0.033-0.1-0.099zm2.25 2.6c0.033 0.034 0.05 0.067 0.05 0.101s-0.083 0.083-0.25 0.149h-0.45-0.05c-0.4 0.067-0.684 0.084-0.85 0.051l-0.3-0.051-0.2 0.2c-0.033-0.066-0.067-0.1-0.1-0.1 0.1-0.101 0.217-0.184 0.35-0.25l0.25 0.05c0.233 0.033 0.533 0.017 0.9-0.05 0.067 0.033 0.2 0.017 0.4-0.05 0.133 0.034 0.217 0.017 0.25-0.05zm-10 1.05l-0.15-0.101-0.6 0.101-0.15-0.1c0.267-0.066 0.483-0.116 0.65-0.149 0.1 0 0.2 0.033 0.3 0.1 0 0.032-0.017 0.082-0.05 0.149zm0.05 0c0.066 0.166 0.167 0.3 0.3 0.399 0.1 0.066 0.25 0.15 0.45 0.25 0.2 0.101 0.383 0.167 0.55 0.2 0.067 0.033 0.1 0.066 0.1 0.1 0.033 0 0.1-0.017 0.2-0.05 0.133-0.033 0.233-0.083 0.3-0.149 0.1-0.101 0.183-0.167 0.25-0.2 0.066-0.066 0.133-0.117 0.2-0.15 0.1-0.066 0.267-0.116 0.5-0.149 0.167-0.067 0.3-0.117 0.4-0.15 0.033 0 0.066 0.017 0.1 0.05 0.067 0 0.15 0.017 0.25 0.05 0.267 0.134 0.534 0.217 0.8 0.25 0.3 0.101 0.5 0.134 0.6 0.101 0.333 0 0.533-0.101 0.6-0.3 0.1-0.134 0.184-0.25 0.25-0.351 0.1-0.033 0.2-0.066 0.3-0.1 0.367 0.1 0.566 0.149 0.6 0.149 0.4 0.2 0.85 0.284 1.35 0.25 0.067-0.033 0.117-0.05 0.15-0.05v-0.05c0.033 0.033 0.05 0.066 0.05 0.1s-0.017 0.051-0.05 0.051l-0.1 0.05h-0.1c-0.367 0.033-0.717 0-1.05-0.101-0.1 0-0.2-0.033-0.3-0.1-0.033-0.033-0.2-0.083-0.5-0.15-0.066 0.034-0.2 0.067-0.4 0.101-0.033 0.1-0.067 0.184-0.1 0.25l-0.1 0.05c-0.066 0.2-0.267 0.316-0.6 0.35-0.133 0.034-0.35 0-0.65-0.1-0.267-0.066-0.5-0.15-0.7-0.25l-0.35-0.15c-0.067 0.034-0.2 0.084-0.4 0.15h-0.1c-0.167 0.066-0.3 0.116-0.4 0.15-0.033 0.033-0.067 0.05-0.1 0.05-0.033 0.066-0.083 0.116-0.15 0.149-0.067 0-0.133 0.051-0.2 0.15-0.1 0.1-0.217 0.167-0.35 0.2h-0.3c-0.167-0.066-0.333-0.15-0.5-0.25-0.033-0.033-0.183-0.134-0.45-0.3-0.1 0-0.167-0.051-0.2-0.15-0.067-0.1-0.117-0.217-0.15-0.35zm-4.6-3.4c0.107 0.103 0.257 0.186 0.45 0.25 0.067 0.033 0.217 0.083 0.45 0.15 0 0.033-0.017 0.083-0.05 0.149-0.133-0.033-0.233-0.083-0.3-0.149-0.066 0-0.133-0.017-0.2-0.051l-0.35-0.349zm1.75-0.8c-0.033 0.033-0.05 0.066-0.05 0.1-0.2-0.2-0.333-0.333-0.4-0.399-0.133-0.134-0.183-0.233-0.15-0.301 0 0.034 0.05 0.101 0.15 0.2 0.1 0.066 0.25 0.2 0.45 0.4z" fill="#4B571B"/>
		<linearGradient id="SVGID_6_" y2="-43.465" gradientUnits="userSpaceOnUse" x2="10.309" gradientTransform="matrix(-.973 .2307 -.6144 -.882 -.00086015 -.000078499)" y1="-43.465" x1=".3398">
		<stop stop-color="#C8D146" offset="0"/>
		<stop stop-color="#7D8523" offset="1"/>
	</linearGradient>
	<path d="m27.7 39.8c0.033 0.066 0.05 0.117 0.05 0.15 0.033 0.033 0.05 0.066 0.05 0.1 0.067 0.434-0.167 0.816-0.7 1.15-0.133 0.066-0.25 0.149-0.35 0.25-0.167 0.066-0.4 0.149-0.7 0.25-0.3 0.1-0.617 0.184-0.95 0.25-0.1 0.033-0.2 0.066-0.3 0.1-0.767 0.134-1.6 0.217-2.5 0.25-0.033-0.033-0.066-0.05-0.1-0.05-0.767 0-1.6-0.05-2.5-0.15-0.267 0-0.517-0.033-0.75-0.1-0.1-0.066-0.2-0.1-0.3-0.1-0.4-0.067-0.767-0.167-1.1-0.301h-0.05c-0.067-0.066-0.233-0.199-0.5-0.399l-1.1-0.95-0.1-0.1c-0.033-0.034-0.066-0.051-0.1-0.051v-0.05l-0.3-0.25-0.1-0.1c-0.033-0.101-0.05-0.184-0.05-0.25 0-0.033-0.017-0.084-0.05-0.15 0.033-0.066 0.05-0.116 0.05-0.149 0.033-0.267 0.15-0.5 0.35-0.7 0.066-0.134 0.183-0.233 0.35-0.3 0.033-0.067 0.066-0.101 0.1-0.101 0-0.033 0.017-0.066 0.05-0.1 0.367-0.233 0.833-0.434 1.4-0.601 0.2-0.066 0.383-0.133 0.55-0.199 0.133-0.067 0.3-0.101 0.5-0.101 0.034-0.033 0.067-0.05 0.1-0.05 0.533-0.134 1.117-0.184 1.75-0.15 0.167-0.066 0.35-0.083 0.55-0.05 0.533 0 1.066 0.033 1.6 0.101 0.133 0.033 0.284 0.083 0.45 0.149 0.2 0 0.4 0.033 0.6 0.101 1.3 0.3 2.316 0.75 3.05 1.35 0.033 0.066 0.067 0.1 0.1 0.1 0.333 0.267 0.6 0.567 0.8 0.9 0.1 0.101 0.15 0.201 0.15 0.301zm-11.85 0.15c0.233 0.434 0.7 0.816 1.4 1.149 0.7 0.367 1.517 0.617 2.45 0.75 2.5 0.267 4.5 0.134 6-0.399 1.2-0.434 1.733-0.95 1.6-1.55 0-0.167-0.066-0.317-0.2-0.45-0.6-1-1.833-1.7-3.7-2.101-1.933-0.5-3.8-0.466-5.6 0.101-0.966 0.333-1.617 0.733-1.95 1.2-0.267 0.4-0.267 0.833 0 1.3z" fill="url(#SVGID_6_)"/>
		<linearGradient id="SVGID_7_" y2="-43.433" gradientUnits="userSpaceOnUse" x2="9.5841" gradientTransform="matrix(-.9728 .2317 -.6142 -.8817 .000056565 .00010094)" y1="-43.433" x1=".8462">
		<stop stop-color="#C8D146" offset="0"/>
		<stop stop-color="#7D8523" offset="1"/>
	</linearGradient>
	<path d="m18.1 38.15l-0.65-0.15c-0.067 0-0.117 0.017-0.15 0.05s-0.017 0.066 0.05 0.101l3.25 2.899c0.066 0.033 0.15 0.066 0.25 0.101 0.1 0.066 0.183 0.083 0.25 0.05l0.3-0.2c0.1-0.033 0.117-0.1 0.05-0.2l-2.9-2.45c-0.1-0.101-0.25-0.167-0.45-0.201zm1.75 0.6c-0.267 0-0.317 0.05-0.15 0.15 0.133 0.133 0.316 0.183 0.55 0.149l2.15-0.049 0.25 0.2c0.133 0.133 0.3 0.2 0.5 0.2 0.067-0.034 0.117-0.051 0.15-0.051 0-0.033-0.017-0.083-0.05-0.149l-1-0.8c-0.1-0.101-0.25-0.15-0.45-0.15-0.066 0.033-0.117 0.05-0.15 0.05s-0.017 0.05 0.05 0.15l0.3 0.25-2.15 0.05zm6.65 2.05l-3.25-2.85c-0.067-0.033-0.15-0.05-0.25-0.05-0.1-0.067-0.183-0.101-0.25-0.101l-0.35 0.201c-0.1 0.033-0.083 0.1 0.05 0.2l2.8 2.45c0.1 0.066 0.267 0.133 0.5 0.199l0.5 0.051c-0.233 0.133-0.517 0.25-0.85 0.35-1.433 0.5-3.316 0.616-5.65 0.35-0.867-0.133-1.617-0.333-2.25-0.6-0.6-0.333-1.033-0.7-1.3-1.1-0.2-0.4-0.167-0.784 0.1-1.15 0.333-0.467 0.95-0.833 1.85-1.1 1.7-0.5 3.45-0.551 5.25-0.15 1.7 0.4 2.833 1.033 3.4 1.9 0.333 0.534 0.233 1-0.3 1.4zm-3.4-1.15l0.3 0.149-2.15 0.15c-0.233 0-0.3 0.066-0.2 0.2 0.167 0.066 0.35 0.1 0.55 0.1l2.2-0.05 0.25 0.2c0.1 0.133 0.25 0.199 0.45 0.199 0.067-0.033 0.133-0.05 0.2-0.05 0-0.066-0.017-0.116-0.05-0.149l-0.95-0.799c-0.133-0.1-0.284-0.149-0.45-0.149-0.1 0-0.15 0.017-0.15 0.05-0.033-0.001-0.033 0.049 0 0.149z" fill="url(#SVGID_7_)"/>
	<path d="m18.1 38.15c0.2 0.033 0.35 0.1 0.45 0.199l2.9 2.45c0.066 0.101 0.05 0.167-0.05 0.2l-0.3 0.2c-0.067 0.033-0.15 0.017-0.25-0.05-0.1-0.034-0.184-0.067-0.25-0.101l-3.25-2.899c-0.067-0.034-0.083-0.067-0.05-0.101 0.034-0.033 0.083-0.05 0.15-0.05l0.65 0.152zm1.75 0.6l2.15-0.05-0.3-0.25c-0.067-0.101-0.083-0.15-0.05-0.15s0.083-0.017 0.15-0.05c0.2 0 0.35 0.05 0.45 0.15l1 0.8c0.033 0.066 0.05 0.116 0.05 0.149-0.033 0-0.083 0.017-0.15 0.051-0.2 0-0.367-0.067-0.5-0.2l-0.25-0.2-2.15 0.05c-0.233 0.033-0.417-0.017-0.55-0.149-0.167-0.101-0.117-0.151 0.15-0.151zm6.65 2.05c0.033 0.033 0.033 0.066 0 0.101 0 0.033-0.033 0.05-0.1 0.05l-0.15-0.05-0.5-0.051c-0.233-0.066-0.4-0.133-0.5-0.199l-2.8-2.45c-0.133-0.101-0.15-0.168-0.05-0.201l0.35-0.2c0.067 0 0.15 0.033 0.25 0.101 0.1 0 0.183 0.017 0.25 0.05l3.25 2.849zm-3.4-1.15c-0.033-0.101-0.033-0.15 0-0.15 0-0.033 0.05-0.05 0.15-0.05 0.167 0 0.317 0.05 0.45 0.149l0.95 0.801c0.033 0.033 0.05 0.083 0.05 0.149-0.067 0-0.133 0.017-0.2 0.05-0.2 0-0.35-0.066-0.45-0.199l-0.25-0.2-2.2 0.05c-0.2 0-0.383-0.033-0.55-0.1-0.1-0.134-0.033-0.2 0.2-0.2l2.15-0.15-0.3-0.15z" fill="#606E23"/>
		<linearGradient id="SVGID_8_" y2="-41.434" gradientUnits="userSpaceOnUse" x2="9.0976" gradientTransform="matrix(-.9813 .1926 -.5528 -.9106 .000010908 -.000034392)" y1="-41.434" x1="4.9448">
		<stop stop-color="#C8D146" offset="0"/>
		<stop stop-color="#7D8523" offset="1"/>
	</linearGradient>
	<path d="m15.25 39.45l-0.15 0.05-0.4-0.4c0.066 0.034 0.133 0.051 0.2 0.051 0.067 0.066 0.167 0.116 0.3 0.149 0.033 0.066 0.05 0.117 0.05 0.15z" fill="url(#SVGID_8_)"/>
		<linearGradient id="SVGID_9_" y2="-43.418" gradientUnits="userSpaceOnUse" x2="9.9225" gradientTransform="matrix(-.9729 .2311 -.6139 -.882 .00027567 .00047669)" y1="-43.418" x1=".6206">
		<stop stop-color="#CFE065" offset="0"/>
		<stop stop-color="#D8E063" offset="1"/>
	</linearGradient>
	<path d="m26.25 40.9l0.15 0.05c0.067 0 0.1-0.017 0.1-0.05 0.033-0.034 0.033-0.067 0-0.101 0.533-0.399 0.633-0.866 0.3-1.399-0.566-0.867-1.7-1.5-3.4-1.9-1.8-0.4-3.55-0.35-5.25 0.15-0.9 0.267-1.517 0.633-1.85 1.1-0.267 0.366-0.3 0.75-0.1 1.15 0.267 0.399 0.7 0.767 1.3 1.1 0.633 0.267 1.383 0.467 2.25 0.6 2.333 0.267 4.217 0.15 5.65-0.35 0.333-0.1 0.617-0.217 0.85-0.35zm-10.4-0.95c-0.267-0.467-0.267-0.9 0-1.3 0.333-0.467 0.983-0.867 1.95-1.2 1.8-0.566 3.667-0.601 5.6-0.101 1.867 0.4 3.1 1.101 3.7 2.101 0.133 0.133 0.2 0.283 0.2 0.45 0.133 0.6-0.4 1.116-1.6 1.55-1.5 0.533-3.5 0.666-6 0.399-0.934-0.133-1.75-0.383-2.45-0.75-0.7-0.332-1.167-0.715-1.4-1.149z" fill="url(#SVGID_9_)"/>
</g>
<g clip-rule="evenodd" fill-rule="evenodd">
	<path d="m13.95 37.85c0.032 0.032 0.065 0.05 0.1 0.051h-0.05c-0.018-0.016-0.034-0.033-0.05-0.051-0.253-0.213-0.52-0.413-0.8-0.6 0-0.033-0.017-0.05-0.05-0.05h-0.05c-0.6-0.634-1.183-1.066-1.75-1.3-0.1-0.034-0.216-0.051-0.35-0.051-0.667-0.165-1.283-0.149-1.85 0.051-0.5 0.2-0.9 0.517-1.2 0.95-0.066 0.067-0.083 0.134-0.05 0.2l-0.2 0.15 0.05-0.1 0.05-0.05c0.033-0.066 0.067-0.116 0.1-0.149 0.033-0.067 0.066-0.117 0.1-0.15l0.2-0.3c0-0.033 0.017-0.066 0.05-0.101 0.1-0.066 0.183-0.133 0.25-0.199l0.7-0.5c0.5-0.267 0.983-0.417 1.45-0.45 0.133 0 0.283 0.017 0.45 0.05h0.1c0.333 0.066 0.583 0.15 0.75 0.25l1.3 1.35c0.033 0.101 0.066 0.167 0.1 0.2 0.067 0.033 0.117 0.066 0.15 0.101l0.25 0.3v0.05c0.033 0.033 0.066 0.05 0.1 0.05 0.067 0.101 0.117 0.167 0.15 0.2v0.098z" fill="#DFE866"/>
		<linearGradient id="SVGID_10_" y2="-17.701" gradientUnits="userSpaceOnUse" x2="41.747" gradientTransform="matrix(-.183 .9831 -.9868 -.163 -.00065464 .00011367)" y1="-17.701" x1="33.279">
		<stop stop-color="#C8D146" offset="0"/>
		<stop stop-color="#7D8523" offset="1"/>
	</linearGradient>
	<path d="m13.95 37.85c0.016 0.019 0.032 0.035 0.05 0.051h0.05l0.8 0.8c-0.4-0.033-0.85 0-1.35 0.1-0.4 0.066-0.783 0.233-1.15 0.5-0.1-0.033-0.3-0.1-0.6-0.2s-0.467-0.166-0.5-0.199c-0.067 0-0.217-0.067-0.45-0.2-0.167-0.101-0.316-0.184-0.45-0.25-0.1 0.166-0.1 0.434 0 0.8 0.1 0.134 0.183 0.366 0.25 0.7 0.033 0.066 0.033 0.166 0 0.3v0.25c-0.033 0.134 0 0.267 0.1 0.4-0.133 0.233-0.267 0.466-0.4 0.699l-0.1 0.099c-0.133 0.033-0.25 0.033-0.35 0-0.3-0.033-0.567-0.084-0.8-0.15-0.133-0.1-0.333-0.233-0.6-0.399-0.2-0.2-0.333-0.351-0.4-0.45-0.066-0.267-0.117-0.434-0.15-0.5-0.1-0.167-0.25-0.267-0.45-0.3-0.167-0.034-0.3-0.051-0.4-0.051-0.1-0.067-0.183-0.15-0.25-0.25-0.033-0.066-0.05-0.166-0.05-0.3 0-0.166-0.017-0.283-0.05-0.35l0.05-0.101c0.033 0 0.067-0.033 0.1-0.1 0.133-0.3 0.283-0.566 0.45-0.8 0.133-0.3 0.25-0.55 0.35-0.75l0.2-0.15c-0.033-0.066-0.017-0.133 0.05-0.2 0.3-0.433 0.7-0.75 1.2-0.949 0.566-0.2 1.183-0.217 1.85-0.051 0.133 0 0.25 0.017 0.35 0.051 0.567 0.233 1.15 0.666 1.75 1.3h0.05c0.033 0 0.05 0.017 0.05 0.05 0.28 0.187 0.547 0.387 0.8 0.6z" fill="url(#SVGID_10_)"/>
	<path d="m5.35 41.05c-0.767-0.333-1.467-0.55-2.1-0.649l0.05-0.051 2.1-0.199c0.067 0.033 0.133 0.017 0.2-0.051l0.05-0.05c0.1-0.033 0.2-0.066 0.3-0.1 0.1-0.101 0.216-0.233 0.35-0.4l0.45-0.7-0.05 0.1c0.033 0.066 0.05 0.184 0.05 0.35 0 0.134 0.017 0.233 0.05 0.3 0.067 0.101 0.15 0.184 0.25 0.25 0.1 0 0.233 0.017 0.4 0.051 0.2 0.033 0.35 0.133 0.45 0.3 0.033 0.066 0.083 0.233 0.15 0.5 0.067 0.1 0.2 0.25 0.4 0.45 0.267 0.166 0.466 0.3 0.6 0.399 0.233 0.066 0.5 0.117 0.8 0.15 0.1 0.033 0.217 0.033 0.35 0-0.167 0.366-0.383 0.666-0.65 0.899-0.233-0.133-0.383-0.233-0.45-0.3-0.1-0.066-0.333-0.217-0.7-0.45-0.233-0.166-0.433-0.316-0.6-0.449l-0.35-0.35c-0.167-0.1-0.3-0.184-0.4-0.25-0.533-0.166-1.017-0.267-1.45-0.3-0.033 0.1-0.067 0.2-0.1 0.3 0 0.1-0.05 0.183-0.15 0.25z" fill="#929937"/>
	<path d="m9.55 42.6c-0.333 0.367-0.783 0.633-1.35 0.8h-0.05c-0.667-0.067-1.183-0.134-1.55-0.2l0.1-0.65c0.033-0.133 0.066-0.25 0.1-0.35 0.034-0.167 0.034-0.283 0-0.351-0.066-0.133-0.267-0.25-0.6-0.35-0.067-0.1-0.35-0.25-0.85-0.45 0.1-0.066 0.15-0.149 0.15-0.249 0.033-0.1 0.067-0.2 0.1-0.3 0.433 0.033 0.917 0.134 1.45 0.3 0.1 0.066 0.233 0.15 0.4 0.25l0.35 0.35c0.167 0.133 0.367 0.283 0.6 0.449 0.367 0.233 0.6 0.384 0.7 0.45 0.067 0.067 0.217 0.168 0.45 0.301z" fill="#868C32"/>
	<path d="m10.7 40.9c0.466-0.7 1.017-1.233 1.65-1.601 0.367-0.267 0.75-0.434 1.15-0.5 0.5-0.1 0.95-0.133 1.35-0.1l0.05 0.05h-0.25l-0.525 0.1c-0.615 0.13-1.106 0.297-1.475 0.5l-0.125 0.075-0.525 0.45-0.125 0.175c-0.159 0.186-0.292 0.427-0.4 0.726-0.01 0.016-0.018 0.032-0.025 0.05-0.126 0.205-0.243 0.447-0.35 0.725v0.05c-0.067 0.134-0.117 0.267-0.15 0.4-0.167 0.4-0.267 0.634-0.3 0.7-0.167 0.3-0.333 0.5-0.5 0.6l-0.05-0.05c-0.767 0.366-1.717 0.566-2.85 0.6h-1.25l0.05-0.05c0.033 0.032 0.066 0.049 0.1 0.05 0.067-0.034 0.15-0.05 0.25-0.05l1.15-0.149c0.233-0.101 0.45-0.184 0.65-0.251 0.566-0.167 1.017-0.434 1.35-0.801 0.267-0.233 0.483-0.533 0.65-0.899l0.1-0.101c0.133-0.233 0.267-0.465 0.4-0.699zm-7.45-0.5c0.633 0.1 1.333 0.316 2.1 0.649 0.5 0.2 0.783 0.351 0.85 0.45 0.033 0.033 0.033 0.066 0 0.1l-3.1-1.199h0.15z" fill="#697529"/>
	<path d="m8.2 43.4c-0.2 0.067-0.417 0.15-0.65 0.25l-1.15 0.15c-0.1 0-0.183 0.017-0.25 0.05-0.034-0.001-0.067-0.018-0.1-0.05l-0.05 0.05h-0.25c0.167-0.333 0.317-0.666 0.45-1 0.267-0.666 0.267-1.083 0-1.25 0.033-0.033 0.033-0.066 0-0.1 0.333 0.1 0.533 0.217 0.6 0.35 0.034 0.067 0.034 0.184 0 0.351-0.033 0.1-0.066 0.217-0.1 0.35l-0.1 0.649c0.367 0.066 0.883 0.133 1.55 0.2h0.05z" fill="#959C37"/>
		<linearGradient id="SVGID_11_" y2="-42.402" gradientUnits="userSpaceOnUse" x2="20.091" gradientTransform="matrix(-.9077 .4196 -.6706 -.7917 -.00083488 .00018936)" y1="-42.402" x1="14.252">
		<stop stop-color="#B0AC9C" offset="0"/>
		<stop stop-color="#827A62" offset="1"/>
	</linearGradient>
	<path d="m14.65 38.75l0.225 0.15c0.083 0.074 0.183 0.149 0.3 0.225l-0.875 0.175c-0.633 0.226-1.066 0.45-1.3 0.675-0.25 0.252-0.317 0.702-0.2 1.351-0.025 0.05-0.017 0.1 0.025 0.149 0.043 0.271 0.085 0.529 0.125 0.775l-1.575-1.075c0.017-0.1 0.05-0.2 0.1-0.3l-0.025-0.05c0.007-0.018 0.015-0.034 0.025-0.05 0.107-0.299 0.241-0.54 0.4-0.726l0.125-0.174 0.525-0.45 0.125-0.075c0.369-0.203 0.86-0.37 1.475-0.5l0.525-0.1z" fill="url(#SVGID_11_)"/>
	<path d="m12.35 39.3c-0.633 0.367-1.184 0.9-1.65 1.601-0.1-0.134-0.133-0.267-0.1-0.4v-0.25c0.033-0.134 0.033-0.233 0-0.3-0.067-0.334-0.15-0.566-0.25-0.7-0.1-0.366-0.1-0.634 0-0.8 0.133 0.066 0.283 0.149 0.45 0.25 0.233 0.133 0.383 0.2 0.45 0.2 0.033 0.033 0.2 0.1 0.5 0.199 0.3 0.1 0.5 0.167 0.6 0.2z" fill="#AAB23F"/>
</g>
</svg>
